<svg 
 xmlns="http://www.w3.org/2000/svg"
 xmlns:xlink="http://www.w3.org/1999/xlink"
 width="24px" height="19px">
<path fill-rule="evenodd"  fill="rgb(246, 119, 31)"
 d="M22.999,14.089 L19.673,14.089 C19.122,14.089 18.674,13.633 18.674,13.072 L18.674,12.848 C18.674,12.287 19.122,11.832 19.673,11.832 L22.999,11.832 C23.551,11.832 23.998,12.287 23.998,12.848 L23.998,13.072 C23.998,13.633 23.551,14.089 22.999,14.089 ZM22.999,9.956 L18.346,9.956 C17.794,9.956 17.347,9.501 17.347,8.939 L17.347,8.716 C17.347,8.154 17.794,7.699 18.346,7.699 L22.999,7.699 C23.551,7.699 23.998,8.154 23.998,8.716 L23.998,8.939 C23.998,9.501 23.551,9.956 22.999,9.956 ZM22.999,5.822 L17.019,5.822 C16.467,5.822 16.020,5.368 16.020,4.806 L16.020,4.582 C16.020,4.021 16.467,3.566 17.019,3.566 L22.999,3.566 C23.551,3.566 23.998,4.021 23.998,4.582 L23.998,4.806 C23.998,5.368 23.551,5.822 22.999,5.822 ZM18.604,16.341 L18.604,19.000 L0.003,19.000 L0.003,16.341 C0.226,13.056 3.141,12.148 5.276,11.503 C4.547,10.621 4.105,9.484 4.105,8.242 L4.105,5.075 C4.105,2.276 6.336,0.007 9.086,0.007 C11.837,0.007 14.068,2.276 14.068,5.075 L14.068,8.242 C14.068,9.352 13.713,10.376 13.118,11.211 C15.355,11.937 18.210,13.417 18.604,16.341 ZM12.604,5.867 C12.604,3.770 10.927,1.562 8.860,1.562 C6.792,1.562 5.615,3.770 5.615,5.867 L5.615,8.240 C5.615,9.171 6.977,11.063 7.525,11.723 C5.921,12.207 2.039,13.806 1.529,15.791 L1.533,17.316 L17.013,17.316 L17.013,15.324 C16.436,13.801 13.626,12.506 11.023,11.723 C11.470,11.098 12.604,9.072 12.604,8.240 L12.604,5.867 Z"/>
</svg>