<svg 
 xmlns="http://www.w3.org/2000/svg"
 xmlns:xlink="http://www.w3.org/1999/xlink"
 width="24px" height="24px">
<path fill-rule="evenodd"  fill="rgb(11, 118, 191)"
 d="M21.999,24.000 L1.999,24.000 C0.894,24.000 -0.001,23.104 -0.001,22.000 L-0.001,1.999 C-0.001,0.895 0.894,-0.000 1.999,-0.000 L21.999,-0.000 C23.104,-0.000 23.999,0.895 23.999,1.999 L23.999,22.000 C23.999,23.104 23.104,24.000 21.999,24.000 ZM23.048,0.950 L0.949,0.950 L0.949,23.050 L23.048,23.050 L23.048,0.950 ZM7.674,7.675 L2.874,7.675 L2.874,2.875 L7.674,2.875 L7.674,7.675 ZM7.674,14.400 L2.874,14.400 L2.874,9.600 L7.674,9.600 L7.674,14.400 ZM7.674,21.125 L2.874,21.125 L2.874,16.325 L7.674,16.325 L7.674,21.125 ZM14.399,7.675 L9.599,7.675 L9.599,2.875 L14.399,2.875 L14.399,7.675 ZM14.399,14.400 L9.599,14.400 L9.599,9.600 L14.399,9.600 L14.399,14.400 ZM14.399,21.125 L9.599,21.125 L9.599,16.325 L14.399,16.325 L14.399,21.125 ZM21.124,7.675 L16.325,7.675 L16.325,2.875 L21.124,2.875 L21.124,7.675 ZM21.124,14.400 L16.325,14.400 L16.325,9.600 L21.124,9.600 L21.124,14.400 ZM21.124,21.125 L16.325,21.125 L16.325,16.325 L21.124,16.325 L21.124,21.125 Z"/>
</svg>