<svg 
 xmlns="http://www.w3.org/2000/svg"
 xmlns:xlink="http://www.w3.org/1999/xlink"
 width="23px" height="16px">
<path fill-rule="evenodd"  fill="rgb(102, 102, 102)"
 d="M21.752,7.613 L17.404,6.991 C16.698,6.854 16.159,6.423 16.156,5.714 L16.149,4.143 C14.828,3.949 13.324,3.802 11.802,3.809 C11.739,3.809 11.678,3.818 11.615,3.819 C12.741,4.735 20.962,11.503 20.962,13.851 C20.962,16.371 16.716,15.964 11.480,15.964 C6.244,15.964 1.998,16.371 1.998,13.851 C1.998,11.512 10.150,4.792 11.327,3.833 C9.764,3.870 8.201,4.028 6.838,4.239 L6.846,5.757 C6.849,6.465 6.315,6.902 5.610,7.046 L1.268,7.707 C0.565,7.843 0.025,7.139 0.021,6.429 L0.008,3.864 C0.001,2.447 1.109,1.747 2.479,1.286 C2.479,1.286 6.751,0.024 11.443,0.003 C15.858,-0.018 20.480,1.203 20.480,1.203 C21.817,1.840 22.968,2.341 22.975,3.758 L22.987,6.324 C22.991,7.033 22.438,7.609 21.752,7.613 ZM11.480,14.628 C16.018,14.628 19.853,14.673 19.697,13.066 C18.710,11.861 11.480,5.046 11.480,5.046 C11.480,5.046 4.250,12.070 3.263,13.066 C2.927,14.728 6.941,14.628 11.480,14.628 ZM21.734,3.880 C21.749,3.259 20.977,2.653 20.485,2.486 C18.352,1.810 14.571,1.288 11.789,1.243 C8.512,1.121 2.485,2.569 2.485,2.569 C2.049,2.711 1.247,3.524 1.250,3.974 L1.258,5.607 C1.370,6.058 1.616,6.460 2.052,6.420 L4.815,5.999 C5.264,5.908 5.604,5.630 5.601,5.180 L5.592,3.168 C5.982,3.095 12.036,1.772 17.385,3.064 L17.395,5.125 C17.397,5.576 17.740,5.850 18.189,5.938 L20.956,6.333 C21.467,6.406 21.744,5.964 21.742,5.513 L21.734,3.880 ZM13.865,11.062 C13.865,12.408 12.798,13.500 11.484,13.500 C10.169,13.500 9.102,12.408 9.102,11.062 C9.102,9.716 10.169,8.625 11.484,8.625 C12.798,8.625 13.865,9.716 13.865,11.062 ZM10.300,11.062 C10.300,11.735 10.831,12.281 11.484,12.281 C12.137,12.281 12.666,11.735 12.666,11.062 C12.666,10.389 12.137,9.843 11.484,9.843 C10.831,9.843 10.300,10.389 10.300,11.062 Z"/>
</svg>