<svg 
 xmlns="http://www.w3.org/2000/svg"
 xmlns:xlink="http://www.w3.org/1999/xlink"
 width="18px" height="19px">
<path fill-rule="evenodd"  fill="rgb(254, 254, 254)"
 d="M15.485,10.193 C17.411,7.818 17.464,5.752 15.504,3.389 C13.531,1.013 11.338,0.395 8.657,1.762 L7.983,0.950 C10.974,-0.751 13.947,-0.051 16.290,2.772 C18.634,5.595 18.498,8.520 16.159,11.005 L15.485,10.193 ZM10.964,4.541 L10.307,3.751 C11.801,2.897 12.775,3.232 13.931,4.624 C15.086,6.017 15.006,6.964 13.834,8.205 L13.178,7.414 C13.923,6.526 13.936,6.199 13.143,5.243 C12.349,4.286 12.013,4.020 10.964,4.541 ZM5.347,6.359 C6.102,7.378 7.010,8.488 8.031,9.513 C9.187,10.671 10.472,11.724 11.629,12.589 L12.613,11.600 C13.074,11.139 13.715,11.218 14.280,11.600 L17.612,14.106 C18.170,14.493 18.072,15.315 17.612,15.776 L15.946,17.446 C15.025,18.369 13.829,18.073 12.613,17.446 C12.613,17.446 8.936,15.376 5.788,12.220 C2.826,9.251 0.535,5.337 0.535,5.337 C0.056,4.021 -0.386,2.919 0.535,1.997 L2.201,0.326 C2.661,-0.135 3.407,-0.135 3.867,0.326 L6.366,3.667 C6.748,4.233 6.826,4.876 6.366,5.337 L5.347,6.359 ZM5.154,3.819 L3.563,1.693 C3.271,1.300 2.796,1.399 2.504,1.693 L1.444,2.756 C1.028,3.148 1.149,4.063 1.367,4.502 C2.352,6.382 4.537,9.275 6.366,11.183 C8.475,13.477 13.446,16.612 13.446,16.612 C13.830,16.814 14.896,16.829 15.188,16.536 L16.248,15.473 C16.467,15.105 16.566,14.678 16.248,14.410 L14.127,12.816 C13.769,12.572 13.360,12.521 13.068,12.816 L11.761,14.125 C11.454,13.907 6.546,10.674 3.816,6.223 L5.154,4.881 C5.447,4.588 5.397,4.179 5.154,3.819 Z"/>
</svg>