<svg 
 xmlns="http://www.w3.org/2000/svg"
 xmlns:xlink="http://www.w3.org/1999/xlink"
 width="18px" height="17px">
<path fill-rule="evenodd"  fill="rgb(243, 90, 86)"
 d="M17.523,4.714 L10.458,4.714 L13.069,7.513 C13.257,7.715 13.257,8.042 13.069,8.244 C12.975,8.345 12.851,8.395 12.728,8.395 C12.604,8.395 12.482,8.345 12.387,8.244 L8.982,4.594 C8.955,4.571 8.931,4.545 8.909,4.515 L8.612,4.197 L8.909,3.879 C8.931,3.849 8.955,3.824 8.982,3.800 L12.387,0.151 C12.576,-0.051 12.882,-0.051 13.069,0.151 C13.257,0.353 13.257,0.680 13.069,0.881 L10.458,3.681 L17.523,3.681 C17.790,3.681 18.005,3.912 18.005,4.197 C18.005,4.483 17.790,4.714 17.523,4.714 ZM10.129,11.482 L11.016,10.618 C11.416,10.228 11.976,10.294 12.466,10.618 L15.366,12.735 C15.767,13.125 15.767,13.757 15.366,14.147 L13.917,15.558 C13.115,16.338 12.160,15.963 11.016,15.558 C11.016,15.558 7.619,13.617 5.040,11.108 C2.301,8.440 0.503,5.324 0.503,5.324 C-0.041,4.295 -0.298,3.281 0.503,2.501 L1.953,1.090 C2.353,0.700 3.067,0.616 3.403,1.090 L5.578,3.913 C5.910,4.391 5.979,4.934 5.578,5.324 L4.721,6.159 C5.471,7.138 6.386,8.228 7.391,9.206 C8.280,10.072 9.244,10.841 10.129,11.482 ZM4.524,4.939 C4.778,4.691 4.735,4.346 4.524,4.041 L3.140,2.245 C2.906,1.976 2.536,2.059 2.217,2.245 L1.293,3.143 C1.039,3.391 1.052,4.293 1.228,4.619 C1.228,4.619 3.950,8.830 5.941,10.618 C7.598,12.167 10.110,14.019 11.741,14.853 C12.123,15.038 12.916,15.141 13.257,14.788 L14.180,13.890 C14.436,13.642 14.521,13.240 14.180,12.992 L12.335,11.644 C12.022,11.439 11.666,11.397 11.412,11.644 L10.247,12.778 C6.382,10.465 3.575,6.307 3.387,6.046 L4.524,4.939 Z"/>
</svg>