<svg 
 xmlns="http://www.w3.org/2000/svg"
 xmlns:xlink="http://www.w3.org/1999/xlink"
 width="18px" height="17px">
<path fill-rule="evenodd"  fill="rgb(102, 102, 102)"
 d="M17.696,4.787 C17.674,4.819 17.650,4.846 17.623,4.871 L14.218,8.740 C14.124,8.847 14.000,8.900 13.877,8.900 C13.754,8.900 13.631,8.847 13.537,8.740 C13.348,8.526 13.348,8.179 13.537,7.965 L16.148,4.997 L9.083,4.997 C8.817,4.997 8.601,4.752 8.601,4.450 C8.601,4.148 8.817,3.902 9.083,3.902 L16.148,3.902 L13.537,0.934 C13.348,0.720 13.348,0.374 13.537,0.160 C13.724,-0.054 14.030,-0.054 14.218,0.160 L17.623,4.029 C17.650,4.054 17.674,4.081 17.696,4.113 L17.993,4.450 L17.696,4.787 ZM10.129,12.173 L11.016,11.256 C11.416,10.843 11.975,10.914 12.466,11.256 L15.367,13.502 C15.767,13.915 15.767,14.584 15.367,14.998 L13.916,16.494 C13.116,17.321 12.159,16.924 11.016,16.494 C11.016,16.494 7.618,14.437 5.040,11.776 C2.300,8.948 0.503,5.645 0.503,5.645 C-0.042,4.553 -0.298,3.478 0.503,2.652 L1.953,1.155 C2.353,0.742 3.067,0.654 3.403,1.155 L5.578,4.148 C5.911,4.655 5.978,5.232 5.578,5.645 L4.720,6.530 C5.471,7.568 6.385,8.723 7.391,9.760 C8.280,10.678 9.245,11.494 10.129,12.173 ZM4.524,5.237 C4.778,4.974 4.735,4.607 4.524,4.284 L3.139,2.380 C2.906,2.095 2.535,2.183 2.215,2.380 L1.294,3.332 C1.039,3.595 1.052,4.552 1.227,4.896 C1.227,4.896 3.950,9.362 5.940,11.256 C7.597,12.900 10.110,14.862 11.741,15.746 C12.122,15.943 12.917,16.052 13.257,15.678 L14.180,14.726 C14.434,14.463 14.521,14.037 14.180,13.773 L12.334,12.345 C12.022,12.127 11.667,12.082 11.411,12.345 L10.247,13.547 C6.383,11.095 3.575,6.687 3.386,6.410 L4.524,5.237 Z"/>
</svg>