<svg 
 xmlns="http://www.w3.org/2000/svg"
 xmlns:xlink="http://www.w3.org/1999/xlink"
 width="160px" height="188px">
<path fill-rule="evenodd"  fill="rgb(102, 102, 102)"
 d="M92.071,162.742 L92.071,174.571 L72.342,174.571 L72.342,163.288 C31.753,159.344 -0.000,124.388 -0.000,81.835 C-0.000,36.639 35.817,-0.000 80.000,-0.000 C124.183,-0.000 160.000,36.639 160.000,81.835 C160.000,122.834 130.526,156.788 92.071,162.742 ZM80.000,14.427 C43.607,14.427 14.105,44.657 14.105,81.948 C14.105,119.239 43.607,149.469 80.000,149.469 C116.392,149.469 145.894,119.239 145.894,81.948 C145.894,44.657 116.392,14.427 80.000,14.427 ZM80.000,137.404 C50.123,137.404 25.903,112.575 25.903,81.948 C25.903,51.321 50.123,26.492 80.000,26.492 C109.877,26.492 134.097,51.321 134.097,81.948 C134.097,112.575 109.877,137.404 80.000,137.404 ZM63.510,48.176 C51.827,48.176 42.356,57.884 42.356,69.860 C42.356,81.836 51.827,91.545 63.510,91.545 C75.192,91.545 84.663,81.836 84.663,69.860 C84.663,57.884 75.192,48.176 63.510,48.176 ZM36.757,174.729 L123.243,174.729 C126.825,174.729 129.730,177.700 129.730,181.365 C129.730,185.029 126.825,188.000 123.243,188.000 L36.757,188.000 C33.174,188.000 30.270,185.029 30.270,181.365 C30.270,177.700 33.174,174.729 36.757,174.729 Z"/>
</svg>