<svg 
 xmlns="http://www.w3.org/2000/svg"
 xmlns:xlink="http://www.w3.org/1999/xlink"
 width="16px" height="16px">
<path fill-rule="evenodd"  fill="rgb(102, 102, 102)"
 d="M11.244,10.348 C11.652,9.939 12.223,10.008 12.724,10.348 L15.683,12.572 C16.092,12.981 16.092,13.644 15.683,14.054 L14.203,15.536 C13.386,16.355 12.410,15.961 11.244,15.536 C11.244,15.536 8.087,13.678 5.511,11.219 L1.825,14.935 C1.527,15.233 1.121,15.308 0.916,15.103 C0.712,14.898 0.787,14.490 1.083,14.193 L4.786,10.482 C2.198,7.773 0.514,4.790 0.514,4.790 C-0.042,3.709 -0.304,2.644 0.514,1.825 L1.993,0.343 C2.402,-0.066 3.130,-0.154 3.473,0.343 L5.694,3.307 C6.032,3.809 6.102,4.381 5.694,4.790 L4.818,5.666 C5.440,6.502 6.192,7.402 6.996,8.266 L11.794,3.457 C12.079,3.170 12.467,3.099 12.663,3.295 C12.859,3.492 12.788,3.884 12.503,4.169 L7.701,9.011 C8.565,9.858 9.486,10.621 10.337,11.255 L11.244,10.348 ZM3.456,5.547 L4.617,4.385 C4.877,4.125 4.833,3.762 4.617,3.442 L3.204,1.556 C2.966,1.274 2.588,1.361 2.262,1.556 L1.320,2.499 C1.060,2.759 1.074,3.707 1.253,4.049 C1.253,4.049 3.548,7.699 5.492,9.773 L6.231,9.032 C4.604,7.275 3.569,5.708 3.456,5.547 ZM6.225,10.499 C7.915,12.094 10.369,13.946 11.984,14.795 C12.373,14.991 13.183,15.098 13.531,14.728 L14.473,13.784 C14.733,13.524 14.820,13.102 14.473,12.841 L12.590,11.426 C12.270,11.210 11.907,11.166 11.646,11.426 L10.458,12.617 C9.147,11.809 7.959,10.788 6.945,9.773 L6.225,10.499 Z"/>
</svg>