<svg 
 xmlns="http://www.w3.org/2000/svg"
 xmlns:xlink="http://www.w3.org/1999/xlink"
 width="40px" height="28px">
<path fill-rule="evenodd"  fill="rgb(255, 255, 255)"
 d="M35.470,24.769 L35.470,22.777 L38.120,22.777 L38.120,20.422 C37.441,18.619 34.136,17.088 31.075,16.162 C31.601,15.423 32.935,13.025 32.935,12.042 L32.935,9.234 C32.935,6.805 31.042,4.255 28.679,4.152 L28.679,2.313 C28.719,2.312 28.758,2.303 28.798,2.303 C32.033,2.303 34.656,4.987 34.656,8.297 L34.656,12.044 C34.656,13.358 34.238,14.568 33.538,15.556 C36.170,16.415 39.527,18.166 39.990,21.625 L39.990,24.769 L35.470,24.769 ZM34.092,24.083 L34.092,28.000 L5.996,28.000 L5.996,24.083 C6.332,19.241 10.736,17.902 13.960,16.952 C12.858,15.653 12.193,13.978 12.193,12.147 L12.193,7.479 C12.193,3.354 15.560,0.011 19.716,0.011 C23.871,0.011 27.239,3.354 27.239,7.479 L27.239,12.147 C27.239,13.783 26.703,15.291 25.804,16.522 C29.185,17.592 33.496,19.773 34.092,24.083 ZM25.028,8.646 C25.028,5.556 22.497,2.302 19.373,2.302 C16.250,2.302 14.472,5.556 14.472,8.646 L14.472,12.143 C14.472,13.515 16.529,16.304 17.357,17.277 C14.934,17.989 9.073,20.346 8.301,23.271 L8.305,25.518 L31.689,25.518 L31.689,22.584 C30.817,20.339 26.573,18.430 22.640,17.277 C23.316,16.355 25.028,13.369 25.028,12.143 L25.028,8.646 ZM7.063,9.234 L7.063,12.042 C7.063,13.025 8.396,15.423 8.923,16.162 C5.861,17.088 2.557,18.619 1.878,20.422 L1.878,22.777 L4.527,22.777 L4.527,24.769 L0.007,24.769 L0.007,21.625 C0.470,18.166 3.828,16.415 6.459,15.556 C5.760,14.568 5.342,13.358 5.342,12.044 L5.342,8.297 C5.342,4.987 7.964,2.303 11.200,2.303 C11.241,2.303 11.278,2.312 11.319,2.313 L11.319,4.152 C8.957,4.255 7.063,6.805 7.063,9.234 Z"/>
</svg>