<svg 
 xmlns="http://www.w3.org/2000/svg"
 xmlns:xlink="http://www.w3.org/1999/xlink"
 width="31px" height="12px">
<path fill-rule="evenodd"  fill="rgb(255, 255, 255)"
 d="M30.887,5.493 L30.542,4.989 L28.841,3.617 C28.841,3.617 16.319,-3.959 2.789,2.846 C2.789,2.846 -0.587,5.954 1.905,10.347 L2.711,11.207 L10.062,8.915 C10.062,8.915 11.361,8.289 10.899,6.432 C10.899,6.432 10.435,4.849 12.356,4.607 C12.356,4.607 17.142,3.616 21.110,4.854 C21.110,4.854 21.844,5.013 21.491,5.908 C21.491,5.908 20.654,8.392 21.460,9.253 L28.763,11.977 C28.763,11.977 30.188,12.317 30.407,10.353 C30.407,10.353 31.304,7.322 30.887,5.493 Z"/>
</svg>