<?xml version="1.0" standalone="no"?><!DOCTYPE svg PUBLIC "-//W3C//DTD SVG 1.1//EN" "http://www.w3.org/Graphics/SVG/1.1/DTD/svg11.dtd"><svg t="1536050783462" class="icon" style="" viewBox="0 0 1024 1024" version="1.1" xmlns="http://www.w3.org/2000/svg" p-id="3259" xmlns:xlink="http://www.w3.org/1999/xlink" width="48" height="48"><defs><style type="text/css"></style></defs><path d="M492.2 828.9h-3.6c-57.6 0-115.2 0.1-172.8-0.1-29.9-0.1-53.1-13.2-68.6-39.4-6.2-10.4-9.3-21.8-10.1-33.9-0.2-2.3-0.2-4.6-0.2-7V540.1c0-27.5 10.8-49.5 32.6-65.7 13.8-10.3 29.5-14.6 46.4-14.5 18.4 0 36.8 0 55.2-0.1 2.6 0 3.6 0.9 4.4 3.3 38.5 120.7 77.1 241.5 115.7 362.2 0.3 1.1 0.6 2.1 1 3.6zM512 165.5c78.5 0 142.4 65.2 142.3 145.2 0 79.8-63.9 145-142.2 145.1-78.3 0.1-142.5-65.3-142.6-145.2 0-79.9 64-145.1 142.5-145.1z m-0.2 590.6c-3.8-11.8-7.4-23-11-34.3-19.1-59.6-38.1-119.2-57.2-178.8-1-3.2-0.7-5.1 2-7.3 21.4-18.1 42.7-36.4 64-54.7 1.8-1.6 2.8-1.6 4.7 0 21.6 18.6 43.3 37.2 65.1 55.7 1.7 1.5 2.1 2.6 1.4 4.9-22.6 70.6-45.2 141.2-67.7 211.7-0.4 0.8-0.8 1.5-1.3 2.8zM787 644.4c0-34.7-0.1-69.5 0-104.2 0-13.4-2.4-26.2-8.8-37.9-13.7-25.5-34.8-40-63.4-41.9-20.9-1.4-41.8-0.2-62.7-0.5-2.4 0-3 1.2-3.6 3-3.7 11.8-7.5 23.6-11.3 35.4-34.8 109.1-69.7 218.1-104.5 327.2-0.7 2.2-1.5 3.6 2 3.6 58.1-0.1 116.2 0 174.2-0.1 14 0 27.3-3.1 39.3-10.6 25.4-15.8 38.4-38.9 38.6-69.3 0.4-35 0.2-69.8 0.2-104.7z m-53.8 61.4c-2 0.9-4.2 1-6.3 1h-56.2c-12.7 0-25.3 0.1-38 0-8.1 0-13.3-6.4-11.5-13.8 1.1-4.5 4.8-7.8 9.5-8 3.7-0.2 7.4-0.1 11.1-0.1h38.7c16.1 0 32.2-0.1 48.4 0 5.6 0 9.9 3.8 10.8 8.8 0.8 5-1.9 10.1-6.5 12.1z m0 0"  p-id="3260"></path></svg>