<?xml version="1.0" standalone="no"?><!DOCTYPE svg PUBLIC "-//W3C//DTD SVG 1.1//EN" "http://www.w3.org/Graphics/SVG/1.1/DTD/svg11.dtd"><svg t="1536050803262" class="icon" style="" viewBox="0 0 1024 1024" version="1.1" xmlns="http://www.w3.org/2000/svg" p-id="4097" xmlns:xlink="http://www.w3.org/1999/xlink" width="48" height="48"><defs><style type="text/css"></style></defs><path d="M512 0C260.266667 0 55.466667 204.8 55.466667 456.533333c0 145.066667 72.533333 281.6 187.733333 371.2l8.533333 4.266667 29.866667-68.266667-4.266667-4.266666C179.2 686.933333 128 576 128 452.266667c0-213.333333 174.933333-384 384-384s384 174.933333 384 384c0 119.466667-55.466667 230.4-149.333333 307.2l-4.266667 4.266666 29.866667 68.266667 8.533333-4.266667c119.466667-85.333333 187.733333-226.133333 187.733333-371.2C968.533333 204.8 763.733333 0 512 0z" p-id="4098" fill="#ffffff"></path><path d="M567.466667 541.866667c29.866667-21.333333 46.933333-51.2 46.933333-85.333334 0-55.466667-46.933333-102.4-102.4-102.4-55.466667 0-102.4 46.933333-102.4 102.4 0 34.133333 17.066667 64 46.933333 85.333334l-179.2 405.333333c-8.533333 21.333333-8.533333 38.4 0 55.466667 12.8 12.8 29.866667 21.333333 51.2 21.333333h366.933334c21.333333 0 38.4-8.533333 46.933333-21.333333 8.533333-12.8 8.533333-34.133333 0-55.466667l-174.933333-405.333333z m110.933333 422.4H345.6l166.4-379.733334 166.4 379.733334z m-213.333333-507.733334c0-25.6 21.333333-46.933333 46.933333-46.933333s46.933333 21.333333 46.933333 46.933333-21.333333 46.933333-46.933333 46.933334-46.933333-21.333333-46.933333-46.933334z" p-id="4099" fill="#ffffff"></path><path d="M678.4 618.666667l29.866667 68.266666 8.533333-8.533333c64-59.733333 98.133333-136.533333 98.133333-221.866667 0-166.4-136.533333-302.933333-302.933333-302.933333s-302.933333 136.533333-302.933333 302.933333c0 85.333333 34.133333 162.133333 98.133333 221.866667l8.533333 8.533333 29.866667-68.266666-4.266667-4.266667c-42.666667-42.666667-64-102.4-64-162.133333 0-128 106.666667-234.666667 234.666667-234.666667s234.666667 106.666667 234.666667 234.666667c0 64-21.333333 119.466667-68.266667 166.4z" p-id="4100" fill="#ffffff"></path></svg>