<svg 
 xmlns="http://www.w3.org/2000/svg"
 xmlns:xlink="http://www.w3.org/1999/xlink"
 width="82px" height="60px">
<path fill-rule="evenodd"  fill="rgb(255, 255, 255)"
 d="M69.839,35.297 C67.385,49.338 55.360,60.000 40.885,60.000 C30.678,60.000 21.702,54.688 16.426,46.640 C7.417,45.593 1.209,42.562 0.162,37.898 C-0.776,33.717 2.610,28.989 8.880,24.656 C9.264,25.621 10.929,26.316 11.484,27.196 C6.738,30.432 4.195,33.743 4.733,36.453 C6.049,43.953 24.094,45.287 44.110,40.810 C62.142,36.775 79.857,27.998 78.148,20.238 C77.490,17.252 73.602,16.313 69.098,15.394 C68.987,14.569 69.757,12.702 69.567,11.864 C76.388,13.263 80.956,16.034 81.840,19.972 C82.932,24.834 78.182,30.437 69.839,35.297 ZM44.534,44.673 C35.791,46.592 27.344,46.692 20.496,46.361 C25.248,51.871 32.352,55.383 40.306,55.383 C52.180,55.383 62.161,47.571 65.220,36.930 C59.311,39.866 52.848,42.848 44.534,44.673 ZM59.664,21.415 C59.664,21.415 59.242,22.761 58.704,23.077 C58.128,23.416 56.502,22.727 56.502,22.727 C54.802,19.623 52.288,17.142 49.147,15.454 C49.147,15.454 49.107,14.404 49.386,13.846 C49.676,13.267 51.216,13.181 51.216,13.181 C54.798,15.031 57.742,17.910 59.664,21.415 ZM42.724,14.559 C37.504,14.559 32.285,16.572 28.933,20.014 C28.933,20.014 27.629,19.607 27.094,19.091 C26.713,18.723 27.048,17.272 27.048,17.272 C33.448,9.874 42.873,10.959 42.948,10.955 C44.370,12.097 43.633,14.559 42.724,14.559 ZM66.241,29.175 C66.206,15.096 54.675,3.694 40.454,3.694 C26.212,3.694 15.598,15.131 15.598,29.239 C15.598,32.550 16.240,35.710 17.398,38.614 C16.479,38.885 14.143,40.330 13.435,40.795 C12.167,37.444 11.464,33.807 11.464,30.000 C11.464,13.431 24.636,-0.000 40.885,-0.000 C56.566,-0.000 69.378,12.510 70.254,28.276 C69.187,28.735 66.910,28.569 66.241,29.175 Z"/>
</svg>