<?xml version="1.0" standalone="no"?><!DOCTYPE svg PUBLIC "-//W3C//DTD SVG 1.1//EN" "http://www.w3.org/Graphics/SVG/1.1/DTD/svg11.dtd"><svg t="1536050338037" class="icon" style="" viewBox="0 0 1024 1024" version="1.1" xmlns="http://www.w3.org/2000/svg" p-id="1983" xmlns:xlink="http://www.w3.org/1999/xlink" width="128" height="128"><defs><style type="text/css"></style></defs><path d="M360.37888 607.54944v-18.57024c0-132.30336-0.0384-264.60416 0.03584-396.90752 0.01536-28.352 10.42176-47.24224 29.73184-54.97088 32.60928-13.056 63.29344 10.46272 63.73632 49.98144 0.60416 53.8496 0.16896 107.71456 0.17664 161.57184 0.00512 28.10112-0.0128 56.20224 0.00512 84.3008 0.0128 12.51584 1.65632 24.96 16.18944 25.11104 14.5024 0.14848 16.37376-11.78368 16.36096-24.64-0.10752-103.03232-0.07936-206.06464-0.0768-309.0944 0-29.84704 11.97568-50.23488 33.6256-57.39264 26.82112-8.86528 54.70464 9.8432 59.0592 39.96672 1.00096 6.88384 0.896 14.0032 0.90112 21.01248 0.04352 98.93376 0.01536 197.87008 0.00256 296.80384 0 2.3424-0.03328 4.68224 0.01536 7.02464 0.26368 12.8768 1.18272 26.62144 16.77824 26.37568 15.65696-0.24576 15.96672-14.08512 15.96416-26.91072-0.02048-90.15552-0.2176-180.30848 0.22528-270.45888 0.05632-11.40992 1.67936-23.65952 5.77792-34.01216 7.63648-19.29216 27.62496-29.92128 46.4512-27.52 19.40992 2.47552 35.85024 18.81088 39.73632 40.2944 1.22624 6.81472 1.28768 13.95712 1.29024 20.95104 0.064 98.93376 0.01536 197.86752 0.06912 296.80128 0.00512 7.00672-1.27232 15.12704 1.48736 20.71552 3.02848 6.13376 10.06592 13.70368 15.31648 13.6704 5.08928-0.03328 11.42272-8.09472 14.76864-14.21312 2.40896-4.40576 0.9728-11.40736 0.9728-17.24928 0.02048-64.39424-0.04608-128.78848-0.04608-193.18016 0-41.05984 18.41664-66.1888 47.85152-65.40544 29.44768 0.78848 46.272 25.11616 46.208 65.32352-0.22272 145.18016-0.19456 290.36288-0.23296 435.54304-0.01024 38.31808-3.92448 75.8144-17.28768 111.75424-23.96416 64.44544-66.55488 107.23328-127.37024 126.85056-69.4016 22.38208-139.30496 19.33568-208.18432-3.28192-56.63232-18.60096-100.70784-56.38912-133.30176-110.21056-47.91552-79.11168-96.17408-157.98528-143.85664-237.26592-5.7728-9.59232-10.74432-20.65152-12.88192-31.76704-5.57824-29.02784 7.07072-56.1536 29.55264-67.4944 23.52128-11.86304 54.01344-3.93728 71.0016 20.12416 22.5536 31.94624 44.08832 64.74496 66.0608 97.1776l3.88608-0.80896z" fill="" p-id="1984"></path></svg>