<svg 
 xmlns="http://www.w3.org/2000/svg"
 xmlns:xlink="http://www.w3.org/1999/xlink"
 width="36px" height="34px">
<path fill-rule="evenodd"  fill="rgb(255, 255, 255)"
 d="M35.998,16.484 L35.998,17.515 C35.527,18.111 34.083,18.253 33.780,17.950 L18.469,3.657 L4.265,16.843 L7.073,16.857 C8.725,16.857 8.931,19.643 8.931,19.643 L8.931,30.278 C10.329,31.923 12.838,30.278 12.838,30.278 L12.838,30.296 C12.902,27.955 15.093,27.383 15.093,27.383 L21.448,27.383 C23.418,27.763 23.389,29.727 23.389,29.727 L23.389,29.771 C25.168,31.860 28.217,29.771 28.217,29.771 L28.217,17.848 C29.757,15.991 31.100,17.848 31.100,17.848 L31.100,31.341 C30.030,33.338 28.198,33.995 28.198,33.995 L23.858,33.995 C21.986,34.128 20.499,31.474 20.499,31.474 L20.499,31.138 C20.365,30.073 19.419,30.207 19.419,30.207 L17.192,30.207 C15.990,29.940 15.722,31.538 15.722,31.538 L15.722,31.341 C15.455,33.072 13.404,33.998 13.404,33.998 L8.366,33.998 C6.094,33.865 6.080,31.208 6.080,31.208 L6.080,21.217 C6.080,19.620 5.024,19.753 5.024,19.753 L1.283,19.753 C0.746,19.267 0.535,18.747 0.476,18.281 L0.336,18.141 C-0.038,17.770 -0.096,17.223 0.207,16.920 L16.968,1.175 C17.015,1.101 17.058,1.025 17.125,0.960 L17.768,0.322 C18.143,-0.049 18.692,-0.105 18.994,0.199 L34.752,14.937 C35.054,15.240 36.181,16.338 35.998,16.484 Z"/>
</svg>