<svg 
 xmlns="http://www.w3.org/2000/svg"
 xmlns:xlink="http://www.w3.org/1999/xlink"
 width="38px" height="30px">
<path fill-rule="evenodd"  fill="rgb(255, 255, 255)"
 d="M36.415,22.245 L31.150,22.245 C30.276,22.245 29.568,21.526 29.568,20.640 L29.568,20.287 C29.568,19.401 30.276,18.681 31.150,18.681 L36.415,18.681 C37.289,18.681 37.998,19.401 37.998,20.287 L37.998,20.640 C37.998,21.526 37.289,22.245 36.415,22.245 ZM36.415,15.720 L29.048,15.720 C28.174,15.720 27.466,15.002 27.466,14.115 L27.466,13.762 C27.466,12.875 28.174,12.157 29.048,12.157 L36.415,12.157 C37.289,12.157 37.998,12.875 37.998,13.762 L37.998,14.115 C37.998,15.002 37.289,15.720 36.415,15.720 ZM36.415,9.193 L26.947,9.193 C26.073,9.193 25.364,8.475 25.364,7.588 L25.364,7.235 C25.364,6.349 26.073,5.630 26.947,5.630 L36.415,5.630 C37.289,5.630 37.998,6.349 37.998,7.235 L37.998,7.588 C37.998,8.475 37.289,9.193 36.415,9.193 ZM29.457,25.802 L29.457,30.000 L0.005,30.000 L0.005,25.802 C0.357,20.615 4.974,19.181 8.354,18.162 C7.199,16.770 6.500,14.976 6.500,13.014 L6.500,8.013 C6.500,3.594 10.032,0.011 14.387,0.011 C18.743,0.011 22.273,3.594 22.273,8.013 L22.273,13.014 C22.273,14.767 21.712,16.383 20.770,17.702 C24.313,18.848 28.833,21.185 29.457,25.802 ZM19.956,9.263 C19.956,5.953 17.302,2.466 14.028,2.466 C10.754,2.466 8.891,5.953 8.891,9.263 L8.891,13.010 C8.891,14.480 11.047,17.468 11.915,18.511 C9.374,19.274 3.229,21.799 2.422,24.933 L2.426,27.341 L26.939,27.341 L26.939,24.197 C26.024,21.791 21.575,19.746 17.453,18.511 C18.161,17.523 19.956,14.324 19.956,13.010 L19.956,9.263 Z"/>
</svg>