<svg 
 xmlns="http://www.w3.org/2000/svg"
 xmlns:xlink="http://www.w3.org/1999/xlink"
 width="18px" height="26px">
<path fill-rule="evenodd"  fill="rgb(255, 255, 255)"
 d="M7.364,26.000 C6.912,26.000 6.545,25.636 6.545,25.187 C6.545,24.739 6.912,24.375 7.364,24.375 L8.182,24.375 L8.182,22.714 C4.142,22.352 0.722,19.337 -0.000,15.438 L1.636,15.438 C2.381,18.693 5.496,21.125 9.000,21.125 C12.504,21.125 15.619,18.693 16.364,15.438 L18.000,15.438 C17.278,19.337 13.858,22.352 9.818,22.714 L9.818,24.375 L10.636,24.375 C11.088,24.375 11.455,24.739 11.455,25.187 C11.455,25.636 11.088,26.000 10.636,26.000 L7.364,26.000 ZM9.000,19.500 C5.837,19.500 3.273,16.954 3.273,13.813 L3.273,5.688 C3.273,2.547 5.837,0.000 9.000,0.000 C12.163,0.000 14.727,2.547 14.727,5.688 L14.727,13.813 C14.727,16.954 12.163,19.500 9.000,19.500 ZM13.091,5.688 C13.091,3.444 11.259,1.625 9.000,1.625 C6.741,1.625 4.909,3.444 4.909,5.688 L4.909,13.813 C4.909,16.056 6.741,17.875 9.000,17.875 C11.259,17.875 13.091,16.056 13.091,13.813 L13.091,5.688 Z"/>
</svg>