<svg xmlns="http://www.w3.org/2000/svg" width="17" height="17" viewBox="0 0 17 17">
  <defs>
    <style>
      .cls-1 {
        fill: #4372b0;
        stroke: #0b76bf;
        stroke-width: 1px;
        fill-rule: evenodd;
      }
    </style>
  </defs>
  <path id="更多_右_" data-name="更多（右）" class="cls-1" d="M4926.03,777a8,8,0,1,0-8,8A8,8,0,0,0,4926.03,777Zm-15,0a7,7,0,1,1,7,7A7,7,0,0,1,4911.03,777Zm9.27,0.439a0.806,0.806,0,0,0,0-.878l-3.83-3.829a0.5,0.5,0,0,0-.71,0,0.511,0.511,0,0,0,0,.708l3.56,3.56-3.56,3.561a0.51,0.51,0,0,0,0,.707,0.5,0.5,0,0,0,.71,0Z" transform="translate(-4909.53 -768.5)"/>
</svg>
