<svg 
 xmlns="http://www.w3.org/2000/svg"
 xmlns:xlink="http://www.w3.org/1999/xlink"
 width="18.5px" height="17.5px">
<path fill-rule="evenodd"   stroke-width="1px"  stroke-linejoin="miter" fill=""
 d="M16.530,8.499 C16.530,4.081 12.948,0.499 8.530,0.499 C4.112,0.499 0.529,4.081 0.529,8.499 C0.529,12.917 4.112,16.499 8.530,16.499 C12.948,16.499 16.530,12.917 16.530,8.499 ZM1.529,8.499 C1.529,4.633 4.663,1.499 8.530,1.499 C12.395,1.499 15.529,4.633 15.529,8.499 C15.529,12.365 12.395,15.499 8.530,15.499 C4.663,15.499 1.529,12.365 1.529,8.499 ZM10.797,8.938 C10.916,8.819 10.954,8.654 10.927,8.499 C10.954,8.344 10.916,8.180 10.797,8.060 L6.968,4.231 C6.773,4.036 6.457,4.036 6.262,4.231 C6.066,4.427 6.066,4.743 6.262,4.939 L9.822,8.499 L6.262,12.060 C6.066,12.255 6.066,12.572 6.262,12.767 C6.457,12.962 6.773,12.962 6.968,12.767 L10.797,8.938 Z"/>
</svg>