<svg 
 xmlns="http://www.w3.org/2000/svg"
 xmlns:xlink="http://www.w3.org/1999/xlink"
 width="40px" height="40px">
<path fill-rule="evenodd"  fill="rgb(255, 255, 255)"
 d="M5.141,0.822 L1.476,4.493 C-0.549,6.521 0.424,8.942 1.476,11.837 C1.476,11.837 6.516,20.439 13.031,26.966 C19.957,33.904 28.048,38.454 28.048,38.454 C30.722,39.832 33.355,40.482 35.378,38.454 L39.043,34.783 C40.056,33.769 40.272,31.962 39.043,31.112 L31.714,25.604 C30.472,24.763 29.061,24.590 28.048,25.604 L28.048,25.604 C28.048,25.604 28.048,25.604 28.048,25.604 L25.880,27.776 C23.338,25.876 20.510,23.561 17.969,21.015 C15.720,18.764 13.724,16.322 12.060,14.083 L14.303,11.837 C15.315,10.823 15.144,9.408 14.303,8.165 L8.805,0.822 C7.794,-0.192 6.153,-0.192 5.141,0.822 M8.694,13.784 L11.638,10.835 C12.282,10.190 12.173,9.290 11.638,8.499 L8.139,3.826 C7.495,2.963 6.451,3.181 5.807,3.826 L3.474,6.162 C2.560,7.025 2.825,9.034 3.308,10.000 C5.472,14.131 10.280,20.492 14.303,24.687 C18.944,29.727 29.881,36.619 29.881,36.619 C30.726,37.063 33.068,37.097 33.713,36.451 L36.045,34.115 C36.527,33.307 36.743,32.369 36.045,31.779 L31.381,28.275 C30.590,27.739 29.692,27.629 29.048,28.275 L26.173,31.153 C25.497,30.676 14.700,23.568 8.694,13.784 Z"/>
</svg>