<svg 
 xmlns="http://www.w3.org/2000/svg"
 xmlns:xlink="http://www.w3.org/1999/xlink"
 width="22px" height="26px">
<path fill-rule="evenodd"  fill="rgb(11, 118, 191)"
 d="M4.086,25.680 L4.651,25.681 L6.604,25.097 C6.604,25.097 19.087,19.455 21.344,5.423 C21.344,5.423 20.851,1.175 16.206,0.769 L15.123,0.935 L12.844,7.815 C12.844,7.815 12.606,9.148 14.249,9.776 C14.249,9.776 15.688,10.256 14.824,11.865 C14.824,11.865 12.965,16.078 9.880,18.482 C9.880,18.482 9.361,18.964 8.883,18.217 C8.883,18.217 7.478,16.256 6.395,16.422 L0.383,20.610 C0.383,20.610 -0.647,21.528 0.706,22.737 C0.706,22.737 2.489,25.033 4.086,25.680 Z"/>
</svg>