<svg 
 xmlns="http://www.w3.org/2000/svg"
 xmlns:xlink="http://www.w3.org/1999/xlink"
 width="40px" height="30px">
<path fill-rule="evenodd" 
 d="M39.231,12.224 L30.000,12.224 C29.575,12.224 29.231,11.865 29.231,11.421 L29.231,11.154 C29.231,10.710 29.575,10.351 30.000,10.351 L39.231,10.351 C39.655,10.351 40.000,10.710 40.000,11.154 L40.000,11.421 C40.000,11.865 39.655,12.224 39.231,12.224 ZM34.748,25.803 L34.748,30.000 L6.112,30.000 L6.112,25.803 C6.455,20.615 10.943,19.181 14.229,18.163 C13.106,16.771 12.428,14.976 12.428,13.015 L12.428,8.013 C12.428,3.594 15.860,0.012 20.096,0.012 C24.331,0.012 27.764,3.594 27.764,8.013 L27.764,13.015 C27.764,14.768 27.217,16.384 26.301,17.702 C29.746,18.849 34.141,21.186 34.748,25.803 ZM25.511,9.264 C25.511,5.953 22.930,2.467 19.746,2.467 C16.563,2.467 14.752,5.953 14.752,9.264 L14.752,13.011 C14.752,14.481 16.848,17.469 17.692,18.511 C15.222,19.275 9.247,21.799 8.461,24.933 L8.466,27.341 L32.299,27.341 L32.299,24.197 C31.410,21.791 27.084,19.747 23.077,18.511 C23.765,17.524 25.511,14.324 25.511,13.011 L25.511,9.264 ZM7.200,9.894 L7.200,12.902 C7.200,13.956 8.559,16.524 9.095,17.317 C5.975,18.308 2.607,19.949 1.915,21.880 L1.915,24.404 L4.615,24.404 L4.615,26.539 L0.008,26.539 L0.008,23.170 C0.481,19.463 3.902,17.587 6.584,16.667 C5.871,15.609 5.446,14.312 5.446,12.905 L5.446,8.890 C5.446,5.343 8.118,2.467 11.415,2.467 C11.457,2.467 11.496,2.477 11.538,2.478 L11.538,4.449 C9.129,4.559 7.200,7.291 7.200,9.894 Z"/>
</svg>