<svg 
 xmlns="http://www.w3.org/2000/svg"
 xmlns:xlink="http://www.w3.org/1999/xlink"
 width="43px" height="39px">
<path fill-rule="evenodd"  fill="rgb(255, 255, 255)"
 d="M15.481,38.988 L15.481,35.240 C15.804,30.606 20.043,29.326 23.147,28.416 C22.087,27.173 21.446,25.570 21.446,23.818 L21.446,19.351 C21.446,15.405 24.688,12.205 28.688,12.205 C32.689,12.205 35.931,15.405 35.931,19.351 L35.931,23.818 C35.931,25.384 35.415,26.827 34.549,28.005 C37.804,29.029 41.954,31.116 42.528,35.240 L42.528,38.988 L15.481,38.988 ZM40.214,33.805 C39.375,31.656 35.289,29.830 31.504,28.727 C32.154,27.845 33.802,24.988 33.802,23.814 L33.802,20.468 C33.802,17.512 31.365,14.398 28.358,14.398 C25.351,14.398 23.641,17.512 23.641,20.468 L23.641,23.814 C23.641,25.127 25.620,27.796 26.417,28.727 C24.084,29.409 18.442,31.663 17.700,34.462 L17.704,36.613 L40.214,36.613 L40.214,33.805 ZM16.441,8.367 L16.441,16.022 L15.928,16.022 L10.943,20.814 L9.679,19.380 L14.507,14.740 L14.507,8.367 L16.441,8.367 ZM15.454,3.582 C8.525,3.582 2.909,9.115 2.909,15.940 C2.909,22.063 7.432,27.131 13.363,28.113 L13.541,31.200 C5.915,30.257 0.009,23.828 0.009,16.022 C0.009,7.567 6.934,0.712 15.475,0.712 C21.963,0.712 27.508,4.672 29.805,10.281 L26.307,9.762 C24.137,6.071 20.094,3.582 15.454,3.582 Z"/>
</svg>