<svg 
 xmlns="http://www.w3.org/2000/svg"
 xmlns:xlink="http://www.w3.org/1999/xlink"
 width="16px" height="16px">
<path fill-rule="evenodd"  fill="rgb(255, 255, 255)"
 d="M13.764,9.045 C15.475,6.937 15.524,5.104 13.781,3.007 C12.028,0.899 10.077,0.350 7.694,1.563 L7.095,0.842 C9.753,-0.667 12.397,-0.046 14.479,2.459 C16.562,4.964 16.442,7.560 14.362,9.765 L13.764,9.045 ZM9.744,4.029 L9.161,3.328 C10.489,2.571 11.355,2.867 12.382,4.103 C13.409,5.339 13.339,6.179 12.296,7.280 L11.713,6.578 C12.376,5.790 12.388,5.500 11.683,4.652 C10.977,3.804 10.678,3.566 9.744,4.029 ZM4.752,5.643 C5.424,6.547 6.230,7.532 7.139,8.441 C8.165,9.468 9.308,10.403 10.336,11.170 L11.211,10.293 C11.620,9.884 12.191,9.954 12.693,10.293 L15.654,12.517 C16.151,12.860 16.064,13.589 15.654,13.999 L14.174,15.481 C13.355,16.299 12.291,16.037 11.211,15.481 C11.211,15.481 7.943,13.644 5.144,10.843 C2.511,8.208 0.475,4.736 0.475,4.736 C0.050,3.567 -0.343,2.590 0.475,1.771 L1.955,0.289 C2.364,-0.120 3.027,-0.120 3.436,0.289 L5.658,3.254 C5.998,3.755 6.066,4.327 5.658,4.736 L4.752,5.643 ZM4.581,3.388 L3.167,1.502 C2.907,1.154 2.485,1.242 2.225,1.502 L1.283,2.445 C0.912,2.793 1.020,3.605 1.215,3.995 C2.090,5.662 4.032,8.230 5.658,9.923 C7.533,11.958 11.952,14.740 11.952,14.740 C12.293,14.919 13.240,14.933 13.500,14.673 L14.442,13.729 C14.637,13.403 14.725,13.025 14.442,12.786 L12.557,11.371 C12.238,11.155 11.876,11.111 11.615,11.371 L10.455,12.533 C10.180,12.341 5.818,9.471 3.392,5.522 L4.581,4.331 C4.841,4.071 4.797,3.708 4.581,3.388 Z"/>
</svg>