<svg 
 xmlns="http://www.w3.org/2000/svg"
 xmlns:xlink="http://www.w3.org/1999/xlink"
 width="14px" height="14px">
<path fill-rule="evenodd"  fill="rgb(255, 255, 255)"
 d="M6.997,13.999 C3.138,13.999 -0.002,10.859 -0.002,6.999 C-0.002,3.140 3.138,-0.001 6.997,-0.001 C10.858,-0.001 13.998,3.140 13.998,6.999 C13.998,10.859 10.858,13.999 6.997,13.999 ZM6.997,0.999 C3.690,0.999 0.999,3.691 0.999,6.999 C0.999,10.308 3.690,12.999 6.997,12.999 C10.307,12.999 12.998,10.308 12.998,6.999 C12.998,3.691 10.307,0.999 6.997,0.999 ZM2.922,3.415 L3.630,2.708 L11.172,10.251 L10.464,10.958 L2.922,3.415 Z"/>
</svg>