<svg 
 xmlns="http://www.w3.org/2000/svg"
 xmlns:xlink="http://www.w3.org/1999/xlink"
 width="48px" height="48px">
<path fill-rule="evenodd"  fill="rgb(11, 118, 191)"
 d="M45.999,48.000 L2.000,48.000 C0.895,48.000 -0.000,47.104 -0.000,46.000 L-0.000,2.000 C-0.000,0.895 0.895,-0.000 2.000,-0.000 L3.868,-0.000 L44.131,-0.000 L45.999,-0.000 C47.104,-0.000 48.000,0.895 48.000,2.000 L48.000,46.000 C48.000,47.104 47.104,48.000 45.999,48.000 ZM46.110,1.863 L1.889,1.863 L1.889,46.136 L46.110,46.136 L46.110,1.863 ZM12.937,13.968 L6.000,13.968 L6.000,7.000 L12.937,7.000 L12.937,13.968 ZM12.937,23.593 L6.000,23.593 L6.000,16.687 L12.937,16.687 L12.937,23.593 ZM12.937,33.281 L6.000,33.281 L6.000,26.344 L12.937,26.344 L12.937,33.281 ZM12.927,43.000 L6.000,43.000 L6.000,36.072 L12.927,36.072 L12.927,43.000 ZM22.562,13.968 L15.625,13.968 L15.625,7.000 L22.562,7.000 L22.562,13.968 ZM22.562,23.593 L15.625,23.593 L15.625,16.687 L22.562,16.687 L22.562,23.593 ZM22.562,33.281 L15.625,33.281 L15.625,26.344 L22.562,26.344 L22.562,33.281 ZM22.576,43.000 L15.649,43.000 L15.649,36.072 L22.576,36.072 L22.576,43.000 ZM32.270,43.000 L25.342,43.000 L25.342,36.072 L32.270,36.072 L32.270,43.000 ZM25.344,26.344 L32.281,26.344 L32.281,33.281 L25.344,33.281 L25.344,26.344 ZM42.000,13.972 L35.073,13.972 L35.073,7.000 L42.000,7.000 L42.000,13.972 ZM42.000,23.599 L35.073,23.599 L35.073,16.694 L42.000,16.694 L42.000,23.599 ZM42.000,33.270 L35.073,33.270 L35.073,26.343 L42.000,26.343 L42.000,33.270 ZM42.000,43.000 L35.073,43.000 L35.073,36.072 L42.000,36.072 L42.000,43.000 ZM25.344,16.687 L32.281,16.687 L32.281,23.593 L25.344,23.593 L25.344,16.687 ZM25.344,7.000 L32.281,7.000 L32.281,13.968 L25.344,13.968 L25.344,7.000 Z"/>
</svg>