<svg 
 xmlns="http://www.w3.org/2000/svg"
 xmlns:xlink="http://www.w3.org/1999/xlink"
 width="48px" height="48px">
<path fill-rule="evenodd"  fill="rgb(11, 118, 191)"
 d="M45.999,48.000 L1.999,48.000 C0.895,48.000 -0.001,47.104 -0.001,46.000 L-0.001,2.000 C-0.001,0.895 0.895,-0.000 1.999,-0.000 L3.868,-0.000 L44.130,-0.000 L45.999,-0.000 C47.104,-0.000 47.999,0.895 47.999,2.000 L47.999,46.000 C47.999,47.104 47.104,48.000 45.999,48.000 ZM46.110,1.863 L1.889,1.863 L1.889,46.136 L46.110,46.136 L46.110,1.863 ZM42.556,42.545 L5.758,42.545 L5.758,5.727 L42.556,5.727 L42.556,42.545 Z"/>
</svg>