<svg 
 xmlns="http://www.w3.org/2000/svg"
 xmlns:xlink="http://www.w3.org/1999/xlink"
 width="48px" height="48px">
<path fill-rule="evenodd"  fill="rgb(11, 118, 191)"
 d="M46.000,47.999 L2.000,47.999 C0.895,47.999 -0.000,47.104 -0.000,46.000 L-0.000,1.999 C-0.000,0.895 0.895,-0.000 2.000,-0.000 L3.869,-0.000 L44.131,-0.000 L46.000,-0.000 C47.104,-0.000 48.000,0.895 48.000,1.999 L48.000,46.000 C48.000,47.104 47.104,47.999 46.000,47.999 ZM46.110,1.863 L1.889,1.863 L1.889,46.136 L46.110,46.136 L46.110,1.863 ZM21.750,21.343 L7.750,21.343 L7.750,7.718 L21.750,7.718 L21.750,21.343 ZM21.718,39.812 L7.750,39.812 L7.750,26.156 L21.718,26.156 L21.718,39.812 ZM41.000,21.719 L27.000,21.719 L27.000,8.125 L41.000,8.125 L41.000,21.719 ZM41.000,40.156 L27.000,40.156 L27.000,26.531 L41.000,26.531 L41.000,40.156 Z"/>
</svg>