<svg 
 xmlns="http://www.w3.org/2000/svg"
 xmlns:xlink="http://www.w3.org/1999/xlink"
 width="48px" height="48px">
<path fill-rule="evenodd"  fill="rgb(11, 118, 191)"
 d="M45.999,47.999 L1.999,47.999 C0.895,47.999 -0.000,47.104 -0.000,45.999 L-0.000,2.000 C-0.000,0.895 0.895,-0.000 1.999,-0.000 L3.868,-0.000 L44.131,-0.000 L45.999,-0.000 C47.104,-0.000 48.000,0.895 48.000,2.000 L48.000,45.999 C48.000,47.104 47.104,47.999 45.999,47.999 ZM46.110,1.863 L1.889,1.863 L1.889,46.136 L46.110,46.136 L46.110,1.863 ZM15.384,15.409 L5.758,15.409 L5.758,5.727 L15.384,5.727 L15.384,15.409 ZM15.384,28.772 L5.758,28.772 L5.758,19.181 L15.384,19.181 L15.384,28.772 ZM15.384,42.227 L5.758,42.227 L5.758,32.591 L15.384,32.591 L15.384,42.227 ZM28.790,15.409 L19.163,15.409 L19.163,5.727 L28.790,5.727 L28.790,15.409 ZM28.790,28.772 L19.163,28.772 L19.163,19.181 L28.790,19.181 L28.790,28.772 ZM28.790,42.227 L19.163,42.227 L19.163,32.591 L28.790,32.591 L28.790,42.227 ZM42.241,15.409 L32.614,15.409 L32.614,5.727 L42.241,5.727 L42.241,15.409 ZM42.241,28.772 L32.614,28.772 L32.614,19.181 L42.241,19.181 L42.241,28.772 ZM42.241,42.227 L32.614,42.227 L32.614,32.591 L42.241,32.591 L42.241,42.227 Z"/>
</svg>