<svg 
 xmlns="http://www.w3.org/2000/svg"
 xmlns:xlink="http://www.w3.org/1999/xlink"
 width="33px" height="26px">
<path fill-rule="evenodd" 
 d="M3.998,-0.001 L32.998,-0.001 L-0.002,25.999 L-0.002,3.999 C-0.002,1.790 1.789,-0.001 3.998,-0.001 Z"/>
<path fill-rule="evenodd"  fill="rgb(255, 255, 255)"
 d="M15.825,4.985 L9.571,11.837 C9.452,11.957 9.293,12.008 9.137,12.000 C8.980,12.008 8.822,11.957 8.701,11.837 L4.161,7.651 C3.938,7.426 3.938,7.061 4.161,6.836 C4.385,6.612 4.749,6.612 4.973,6.836 L9.137,10.610 L15.015,4.170 C15.238,3.945 15.601,3.945 15.825,4.170 C16.050,4.394 16.050,4.760 15.825,4.985 Z"/>
</svg>