<svg 
 xmlns="http://www.w3.org/2000/svg"
 xmlns:xlink="http://www.w3.org/1999/xlink"
 width="15px" height="15px">
<path fill-rule="evenodd"  fill="rgb(255, 255, 255)"
 d="M14.578,14.587 C14.304,14.861 13.944,14.999 13.584,14.999 C13.223,14.999 12.864,14.862 12.589,14.588 L9.975,12.054 L10.629,11.381 L13.247,13.919 C13.435,14.108 13.732,14.108 13.915,13.925 C14.003,13.836 14.052,13.718 14.052,13.592 C14.052,13.467 14.003,13.349 13.915,13.261 L11.373,10.637 L12.044,9.985 L14.583,12.603 C14.843,12.863 14.990,13.216 14.990,13.592 C14.990,13.968 14.843,14.322 14.578,14.587 ZM6.083,12.186 C2.723,12.186 -0.011,9.452 -0.011,6.092 C-0.011,2.732 2.723,-0.002 6.083,-0.002 C9.443,-0.002 12.177,2.732 12.177,6.092 C12.177,9.452 9.443,12.186 6.083,12.186 ZM6.083,0.936 C3.241,0.936 0.927,3.249 0.927,6.092 C0.927,8.935 3.241,11.248 6.083,11.248 C8.926,11.248 11.239,8.935 11.239,6.092 C11.239,3.249 8.926,0.936 6.083,0.936 ZM3.434,8.743 C1.973,7.282 1.973,4.902 3.434,3.440 L4.097,4.103 C3.000,5.200 3.000,6.984 4.097,8.080 L3.434,8.743 Z"/>
</svg>