<?xml version="1.0" standalone="no"?><!DOCTYPE svg PUBLIC "-//W3C//DTD SVG 1.1//EN" "http://www.w3.org/Graphics/SVG/1.1/DTD/svg11.dtd"><svg t="1536270163014" class="icon" style="" viewBox="0 0 1024 1024" version="1.1" xmlns="http://www.w3.org/2000/svg" p-id="6020" xmlns:xlink="http://www.w3.org/1999/xlink" width="16" height="16"><defs><style type="text/css"></style></defs><path d="M492.8 556.088889c-137.309091 0-249.018182-111.709091-249.018182-249.018182C243.781818 169.890909 355.490909 58.181818 492.8 58.181818c137.309091 0 248.888889 111.709091 248.888889 248.888889 0 137.309091-111.709091 249.018182-248.888889 249.018182z m0-429.511111c-99.555556 0-180.492929 80.937374-180.492929 180.492929s81.066667 180.492929 180.492929 180.492929c99.555556 0 180.492929-80.937374 180.492929-180.492929 0-99.426263-81.066667-180.492929-180.492929-180.492929z m0 0" fill="#ffffff" p-id="6021"></path><path d="M82.682828 966.206061c-18.876768 0-34.262626-15.385859-34.262626-34.262627 0-245.010101 199.240404-444.250505 444.379798-444.250505 108.347475 0 212.816162 39.563636 294.012121 111.191919 14.222222 12.541414 15.515152 34.133333 2.973738 48.355556s-34.133333 15.385859-48.355556 2.973737c-68.654545-60.638384-156.961616-94.125253-248.759596-94.125252C285.414141 556.088889 116.816162 724.686869 116.816162 931.943434c0 18.876768-15.256566 34.262626-34.133334 34.262627z m0 0M941.317172 849.19596H707.426263c-18.876768 0-34.262626-15.385859-34.262627-34.262627s15.385859-34.262626 34.262627-34.262626h233.890909c18.876768 0 34.262626 15.385859 34.262626 34.262626 0 19.006061-15.385859 34.262626-34.262626 34.262627z m0 0" fill="#ffffff" p-id="6022"></path><path d="M824.436364 966.206061c-18.876768 0-34.262626-15.385859-34.262627-34.262627V698.052525c0-18.876768 15.385859-34.262626 34.262627-34.262626s34.262626 15.385859 34.262626 34.262626v233.890909c-0.129293 18.876768-15.385859 34.262626-34.262626 34.262627z m0 0" fill="#ffffff" p-id="6023"></path></svg>