<?xml version="1.0" standalone="no"?><!DOCTYPE svg PUBLIC "-//W3C//DTD SVG 1.1//EN" "http://www.w3.org/Graphics/SVG/1.1/DTD/svg11.dtd"><svg t="1536268826541" class="icon" style="" viewBox="0 0 1024 1024" version="1.1" xmlns="http://www.w3.org/2000/svg" p-id="2868" data-spm-anchor-id="a313x.7781069.0.i0" xmlns:xlink="http://www.w3.org/1999/xlink" width="16" height="16"><defs><style type="text/css"></style></defs><path d="M341.228925 816.448531C441.182034 816.448531 541.215456 820.525779 641.090928 816.402176 642.418781 816.310848 643.725219 816.149715 645.037009 815.91408 647.856021 815.328582 650.573302 814.408115 653.143341 813.068531 661.255027 808.839808 667.348162 801.080154 670.172528 792.226208 671.398651 788.38736 671.947461 784.418822 672.019744 780.387104L675.60709 219.27234C675.941731 208.853938 676.38881 198.438296 676.581564 188.016031 676.573532 186.493514 676.530698 184.984516 676.442353 183.464758 676.123775 179.691574 675.524099 175.953156 674.137349 172.426367 673.454682 170.695807 672.587294 169.042504 671.519121 167.532403 666.247864 160.077917 656.80297 157.237337 648.329872 156.146356 646.530844 155.91486 644.72914 155.786006 642.922081 155.678122L641.168564 155.617144C540.607749 154.473187 439.953234 151.505961 339.467378 155.643081 338.13417 155.734685 336.822379 155.895822 335.505234 156.132008 332.670159 156.719162 329.939493 157.641005 327.353391 158.9839 319.514771 163.055076 313.515336 170.419613 310.605302 178.916519 309.432722 182.339838 308.806274 185.887873 308.592105 189.505438 301.580716 387.043399 301.586071 584.977579 308.592105 782.51609 308.843754 786.726054 309.662954 790.84441 311.210332 794.758035 314.792324 803.816992 321.958986 811.361152 330.962154 814.6512 333.711561 815.656371 336.560021 816.202413 339.467378 816.401901 340.35886 816.438874 340.345475 816.43639 341.228925 816.448531L341.228925 816.448531ZM340.971921 856.180774C333.751718 856.081446 326.633244 855.000122 319.755712 852.690688 299.131148 845.763757 282.535655 828.880864 274.86034 808.055648 271.840544 799.866669 270.325292 791.28864 270.017422 782.550854 267.669584 584.87135 267.666907 387.147697 270.017422 189.468189 270.325292 180.733718 271.840544 172.159278 274.86034 163.97416 282.324162 143.735823 298.215571 127.198656 318.079833 119.942279 324.917208 117.443838 332.016941 116.185927 339.253208 115.887935 440.170081 114.505032 541.111048 114.744253 642.030598 115.892349 646.731629 116.055969 651.40321 116.396728 656.053375 117.139776 668.906248 119.193437 681.526212 123.946407 691.75818 132.381507 694.296094 134.472968 696.67338 136.77192 698.847205 139.259876 701.596612 142.405621 704.024764 145.847979 706.083472 149.511899 708.632094 154.049377 710.613166 158.914645 712.045427 163.943533 714.540507 172.693457 715.257976 181.742199 715.086641 190.825708L714.155002 220.057052C712.95565 407.596558 713.879258 595.163657 710.53553 782.675571 710.457893 784.572512 710.334745 786.454547 710.168764 788.345421 709.274604 796.316698 707.400617 804.076352 704.276413 811.44089 696.354803 830.119181 681.172831 845.240064 662.475796 852.09305 655.641098 854.59783 648.544042 855.858502 641.310452 856.15705 541.207425 857.535258 441.08298 856.180774 340.971921 856.180774L340.971921 856.180774Z" p-id="2869" fill="#828282"></path><path d="M457.635639 783.007776C454.79521 782.954528 452.032419 782.375648 449.454348 781.129325 447.114541 779.999162 445.00229 778.381728 443.278222 776.398707 441.712104 774.59641 440.469919 772.498874 439.631979 770.238554 436.352502 761.400608 439.757804 751.113267 447.593747 746.183987 450.230714 744.525997 453.164842 743.61767 456.227472 743.328512 478.889328 742.047418 501.674332 742.047418 524.336188 743.328512 527.401496 743.61767 530.335624 744.525997 532.969914 746.183987 540.586332 750.974483 544.053208 760.852915 541.172622 769.556205 540.414996 771.846605 539.24777 773.989389 537.745903 775.849626 536.094118 777.896115 534.040764 779.59191 531.743791 780.809536 529.208554 782.151878 526.467179 782.834227 523.634781 782.994534 501.636852 783.408685 479.633569 783.007776 457.635639 783.007776L457.635639 783.007776Z" p-id="2870" fill="#828282"></path><path d="M297.757783 708.61991C296.266625 708.552589 295.883796 708.585971 294.408701 708.318054 290.534902 707.613638 286.910076 705.669242 284.128544 702.801068 282.541009 701.165976 281.23725 699.245308 280.286871 697.149432 277.154635 690.223881 278.225485 681.837894 282.990766 675.98401 284.433736 674.212614 286.176544 672.705272 288.120136 671.549174 291.118515 669.765085 294.333741 669.041628 297.757783 668.887665L679.70309 668.887665C683.127132 669.041628 686.342358 669.765085 689.340737 671.549174 691.28433 672.705272 693.027137 674.212614 694.46743 675.98401 699.232711 681.837894 700.306238 690.223881 697.171325 697.149432 696.223624 699.245308 694.919864 701.165976 693.33233 702.801068 690.54812 705.669242 686.925971 707.613638 683.049496 708.318054 681.5744 708.585971 681.194248 708.552589 679.70309 708.61991L297.757783 708.61991 297.757783 708.61991Z" p-id="2871" fill="#828282"></path><path d="M304.367603 245.131961C302.876444 245.064913 302.496293 245.098299 301.021197 244.830382 297.147399 244.125962 293.522573 242.181565 290.738363 239.313395 289.153506 237.678302 287.847069 235.757635 286.899367 233.661758 283.767132 226.735932 284.837982 218.35022 289.603263 212.496337 291.046233 210.724664 292.789041 209.217598 294.729956 208.0615 297.728335 206.277412 300.943561 205.553955 304.367603 205.399716L686.31291 205.399716C689.739629 205.553955 692.954855 206.277412 695.950557 208.0615 697.894149 209.217598 699.636957 210.724664 701.079927 212.496337 705.845208 218.35022 706.916058 226.735932 703.783822 233.661758 702.83612 235.757635 701.529684 237.678302 699.944826 239.313395 697.160617 242.181565 693.535791 244.125962 689.661992 244.830382 688.186897 245.098299 687.806745 245.064913 686.31291 245.131961L304.367603 245.131961 304.367603 245.131961Z" p-id="2872" fill="#828282"></path></svg>