<svg 
 xmlns="http://www.w3.org/2000/svg"
 xmlns:xlink="http://www.w3.org/1999/xlink"
 width="22px" height="24px">
<path fill-rule="evenodd"  fill="rgb(11, 118, 191)"
 d="M21.728,14.560 L14.792,21.713 C14.661,21.848 14.498,21.915 14.330,21.949 L10.425,23.939 C9.985,24.150 9.634,23.743 9.795,23.290 L11.725,19.263 C11.758,19.090 11.823,18.921 11.954,18.787 L18.890,11.633 C19.239,11.274 19.803,11.274 20.151,11.633 L21.728,13.259 C22.076,13.618 22.076,14.200 21.728,14.560 ZM10.649,22.734 C10.547,22.946 10.744,23.164 10.964,23.059 L13.375,21.553 L12.109,20.247 L10.649,22.734 ZM12.584,19.437 C12.752,19.610 13.570,20.453 14.161,21.063 L19.206,15.860 L17.618,14.246 L12.584,19.437 ZM20.782,13.584 L19.836,12.609 C19.662,12.429 19.380,12.429 19.206,12.609 L18.282,13.561 L19.836,15.210 L20.782,14.235 C20.957,14.055 20.957,13.764 20.782,13.584 ZM4.885,13.499 L7.391,13.499 C7.119,13.974 6.886,14.475 6.698,14.999 L4.885,14.999 C4.499,14.999 4.186,14.663 4.186,14.248 C4.186,13.835 4.499,13.499 4.885,13.499 ZM4.186,5.249 C4.186,4.835 4.499,4.499 4.885,4.499 L14.664,4.499 C15.050,4.499 15.360,4.835 15.360,5.249 C15.360,5.663 15.050,5.999 14.664,5.999 L4.885,5.999 C4.499,5.999 4.186,5.663 4.186,5.249 ZM4.885,10.482 C4.499,10.482 4.186,10.146 4.186,9.732 C4.186,9.317 4.499,8.982 4.885,8.982 L13.756,8.982 C12.427,9.212 11.191,9.728 10.121,10.482 L4.885,10.482 ZM18.155,2.999 C18.155,2.171 17.528,1.499 16.757,1.499 L2.790,1.499 C2.018,1.499 1.392,2.171 1.392,2.999 L1.392,22.542 L4.186,20.249 L6.282,23.249 L7.087,22.558 C7.245,22.881 7.415,23.195 7.605,23.496 L6.980,23.999 L5.817,23.999 L4.186,21.748 L1.301,23.999 L-0.004,23.999 L-0.004,2.999 C-0.004,1.342 1.248,-0.001 2.790,-0.001 L16.757,-0.001 C18.302,-0.001 19.552,1.342 19.552,2.999 L19.552,9.939 C19.107,9.696 18.640,9.492 18.155,9.326 L18.155,2.999 Z"/>
</svg>