<svg 
 xmlns="http://www.w3.org/2000/svg"
 xmlns:xlink="http://www.w3.org/1999/xlink"
 width="22px" height="26px">
<path fill-rule="evenodd"  fill="rgb(11, 118, 191)"
 d="M15.276,26.006 C11.563,26.006 8.552,22.804 8.552,18.854 C8.552,14.905 11.563,11.702 15.276,11.702 C18.989,11.702 22.000,14.905 22.000,18.854 C22.000,22.804 18.989,26.006 15.276,26.006 ZM15.276,12.596 C12.027,12.596 9.394,15.398 9.394,18.854 C9.394,22.310 12.027,25.112 15.276,25.112 C18.526,25.112 21.159,22.310 21.159,18.854 C21.159,15.398 18.526,12.596 15.276,12.596 ZM18.479,19.964 L14.959,19.964 C14.716,19.964 14.519,19.756 14.519,19.500 L14.519,15.785 C14.519,15.529 14.716,15.321 14.959,15.321 C15.202,15.321 15.399,15.529 15.399,15.785 L15.399,19.035 L18.479,19.035 C18.722,19.035 18.919,19.243 18.919,19.500 C18.919,19.756 18.722,19.964 18.479,19.964 ZM4.885,13.896 L7.394,13.896 C7.122,14.385 6.890,14.901 6.700,15.440 L4.885,15.440 C4.500,15.440 4.187,15.095 4.187,14.668 C4.187,14.242 4.500,13.896 4.885,13.896 ZM4.187,5.403 C4.187,4.977 4.500,4.631 4.885,4.631 L14.665,4.631 C15.050,4.631 15.363,4.977 15.363,5.403 C15.363,5.830 15.050,6.175 14.665,6.175 L4.885,6.175 C4.500,6.175 4.187,5.830 4.187,5.403 ZM4.885,10.790 C4.500,10.790 4.187,10.444 4.187,10.018 C4.187,9.591 4.500,9.246 4.885,9.246 L13.764,9.246 C12.433,9.482 11.196,10.014 10.124,10.790 L4.885,10.790 ZM18.157,3.087 C18.157,2.234 17.533,1.543 16.761,1.543 L2.790,1.543 C2.019,1.543 1.395,2.234 1.395,3.087 L1.395,23.206 L4.187,20.845 L6.284,23.933 L7.090,23.221 C7.246,23.553 7.417,23.876 7.607,24.186 L6.981,24.705 L5.817,24.705 L4.187,22.389 L1.301,24.705 L-0.004,24.705 L-0.004,3.087 C-0.004,1.381 1.248,-0.001 2.790,-0.001 L16.761,-0.001 C18.303,-0.001 19.556,1.381 19.556,3.087 L19.556,10.231 C19.110,9.981 18.642,9.770 18.157,9.599 L18.157,3.087 Z"/>
</svg>