<svg 
 xmlns="http://www.w3.org/2000/svg"
 xmlns:xlink="http://www.w3.org/1999/xlink"
 width="24px" height="24px">
<path fill-rule="evenodd"  fill="rgb(11, 118, 191)"
 d="M11.999,21.000 C11.232,21.000 10.484,20.930 9.756,20.810 L4.499,24.000 L4.499,18.689 C1.758,16.765 -0.001,13.814 -0.001,10.500 C-0.001,4.701 5.372,-0.000 11.999,-0.000 C18.627,-0.000 23.999,4.701 23.999,10.500 C23.999,16.299 18.627,21.000 11.999,21.000 ZM11.999,1.500 C6.201,1.500 1.499,5.529 1.499,10.500 C1.499,13.550 3.273,16.240 5.981,17.868 L5.933,21.347 L9.464,19.225 C10.277,19.398 11.124,19.500 11.999,19.500 C17.798,19.500 22.499,15.470 22.499,10.500 C22.499,5.529 17.798,1.500 11.999,1.500 ZM17.249,9.750 L6.749,9.750 C6.335,9.750 5.999,9.414 5.999,9.000 C5.999,8.586 6.335,8.250 6.749,8.250 L17.249,8.250 C17.664,8.250 18.000,8.586 18.000,9.000 C18.000,9.414 17.664,9.750 17.249,9.750 ZM8.250,12.750 L15.749,12.750 C16.164,12.750 16.499,13.085 16.499,13.500 C16.499,13.914 16.164,14.250 15.749,14.250 L8.250,14.250 C7.835,14.250 7.500,13.914 7.500,13.500 C7.500,13.085 7.835,12.750 8.250,12.750 Z"/>
</svg>