<svg 
 xmlns="http://www.w3.org/2000/svg"
 xmlns:xlink="http://www.w3.org/1999/xlink"
 width="42px" height="35px">
<path fill-rule="evenodd"  fill="rgb(255, 255, 255)"
 d="M38.929,15.284 L38.929,34.023 L30.072,34.023 L12.317,34.023 L3.358,34.023 L3.358,16.752 L0.328,15.499 L15.942,0.875 L25.233,0.876 L41.971,15.267 L38.929,15.284 ZM15.222,31.121 L27.068,31.121 L27.068,21.057 L15.222,21.057 L15.222,31.121 ZM25.000,3.778 L16.778,3.878 L4.121,14.887 L6.581,14.872 L6.581,31.121 L12.317,31.121 L12.317,18.140 L30.072,18.140 L30.072,31.121 L35.706,31.121 L35.706,14.702 L38.178,14.687 L25.000,3.778 Z"/>
</svg>