<svg 
 xmlns="http://www.w3.org/2000/svg"
 xmlns:xlink="http://www.w3.org/1999/xlink"
 width="18px" height="27px">
<path fill-rule="evenodd"  fill="rgb(102, 102, 102)"
 d="M15.516,26.999 L2.519,26.999 C1.198,26.999 0.033,26.263 0.033,25.358 L-0.001,1.260 C-0.001,0.564 0.537,-0.001 1.201,-0.001 C1.864,-0.001 2.403,0.564 2.403,1.260 L2.403,6.833 C2.443,6.832 2.480,6.825 2.519,6.825 L4.808,6.825 L4.808,4.673 C4.808,4.325 5.078,4.043 5.410,4.043 L6.612,4.043 C6.944,4.043 7.214,4.325 7.214,4.673 L7.214,6.825 L15.516,6.825 C16.837,6.825 18.001,7.562 18.001,8.468 L18.001,25.358 C18.001,26.263 16.837,26.999 15.516,26.999 ZM15.858,8.468 C15.858,8.341 15.702,8.233 15.516,8.233 L2.519,8.233 C2.333,8.233 2.176,8.341 2.176,8.468 L2.176,25.358 C2.176,25.485 2.333,25.592 2.519,25.592 L15.516,25.592 C15.702,25.592 15.858,25.485 15.858,25.358 L15.858,8.468 ZM13.226,24.462 C12.567,24.462 12.032,23.902 12.032,23.211 C12.032,22.520 12.567,21.960 13.226,21.960 C13.886,21.960 14.420,22.520 14.420,23.211 C14.420,23.902 13.886,24.462 13.226,24.462 ZM13.226,20.680 C12.567,20.680 12.032,20.119 12.032,19.429 C12.032,18.737 12.567,18.177 13.226,18.177 C13.886,18.177 14.420,18.737 14.420,19.429 C14.420,20.119 13.886,20.680 13.226,20.680 ZM14.745,15.562 C14.429,15.652 3.142,15.868 3.252,15.737 C3.290,15.732 3.112,9.786 3.368,9.641 L14.667,9.641 C15.045,9.603 14.554,15.719 14.745,15.562 ZM13.640,11.048 L4.395,11.048 L4.395,14.625 L13.640,14.625 L13.640,11.048 ZM6.011,18.177 C6.671,18.177 7.204,18.737 7.204,19.429 C7.204,20.119 6.671,20.680 6.011,20.680 C5.352,20.680 4.818,20.119 4.818,19.429 C4.818,18.737 5.352,18.177 6.011,18.177 ZM6.011,21.960 C6.671,21.960 7.204,22.520 7.204,23.211 C7.204,23.902 6.671,24.462 6.011,24.462 C5.352,24.462 4.818,23.902 4.818,23.211 C4.818,22.520 5.352,21.960 6.011,21.960 ZM9.618,18.177 C10.278,18.177 10.813,18.737 10.813,19.429 C10.813,20.119 10.278,20.680 9.618,20.680 C8.959,20.680 8.424,20.119 8.424,19.429 C8.424,18.737 8.959,18.177 9.618,18.177 ZM9.618,21.960 C10.278,21.960 10.813,22.520 10.813,23.211 C10.813,23.902 10.278,24.462 9.618,24.462 C8.959,24.462 8.424,23.902 8.424,23.211 C8.424,22.520 8.959,21.960 9.618,21.960 Z"/>
</svg>