<svg xmlns="http://www.w3.org/2000/svg" width="268" height="30.219" viewBox="0 0 268 30.219">
  <defs>
    <style>
      .cls-1 {
        fill: #fff;
        fill-rule: evenodd;
      }
    </style>
  </defs>
  <path id="logo" class="cls-1" d="M151.307,72.51V70.322h-7.09v-6.21h6.058v-2.4h-6.058V57.056h-2.684V70.322h-6.058V72.51h15.832Zm10.312-7.268h-2.753l0.275-2.4h1.721l-0.964.988q0.757,0.566,1.721,1.411h0Zm0.689,2.4a9.778,9.778,0,0,0-1.033-.706H164.3q-0.069,1.27-.069,2.329H162.17l1.033-.988a10.692,10.692,0,0,1-.9-0.635h0Zm-0.069-4.163a6.655,6.655,0,0,0-.9-0.635h3.029q-0.069,1.27-.069,2.4H162.17l1.033-1.129c-0.231-.141-0.551-0.353-0.964-0.635h0Zm-0.688,5.786h-3.029l0.206-2.329h2.134l-1.032.988q0.825,0.635,1.721,1.341h0Zm-8.812-10.091q1.239,1.058,1.79,1.623l1.515-1.694q-1.379-1.2-2.616-2.117l-1.446,1.552q0.274,0.212.757,0.635h0Zm1.239,6.21,1.515-1.835q-1.378-1.2-2.616-2.117l-1.308,1.623q1.926,1.765,2.409,2.329h0Zm-2.065,7.268a9.523,9.523,0,0,1,1.515.424l0.619,0.212q0.344-1.2.9-3.528,0.413-1.694.62-2.54a0.511,0.511,0,0,1-.207-0.071,13.815,13.815,0,0,1-1.858-.706q-0.759,3.6-1.584,6.21h0Zm4.612-5.716-0.344,4.022h7.985a1.028,1.028,0,0,1-.137.564,5.494,5.494,0,0,1-1.1.071h-2.478a8.863,8.863,0,0,0,.275.847l0.207,0.847q2.545,0,3.166-.07a2.209,2.209,0,0,0,1.721-.635,2.089,2.089,0,0,0,.551-1.623h1.308V69.264h-1.239q0-1.2.069-2.329h1.308V65.242h-1.308q0-2.046.069-4.093h-8.467q0.136-.212.344-0.494c0.183-.282.32-0.494,0.413-0.635h8.6V58.185h-7.5a0.558,0.558,0,0,1,.069-0.212c0.183-.329.321-0.565,0.413-0.706l-2.34-.353a15.546,15.546,0,0,1-3.236,4.657q0.757,0.989,1.308,1.764,0.414-.423.826-0.776l-0.275,2.681h-1.515v1.694h1.308Zm18.5-2.964V63.054h5.92v0.917h-5.92Zm5.92,1.341V66.23h-5.92V65.312h5.92Zm-5.92,2.258h5.92v0.917h-5.92V67.57Zm-4.819-6.21a10.653,10.653,0,0,1,1.928-1.341q-0.827-1.128-1.859-2.47Q170,57.2,169.866,56.986l-1.79,1.2a24.437,24.437,0,0,1,2.134,3.175h0Zm1.239,8.327V62.842h-3.51V65.03h1.514v4.657a1.3,1.3,0,1,0-.207.212,13.908,13.908,0,0,0-1.376,1.129l0.963,2.47a17.112,17.112,0,0,1,1.721-1.976A5.414,5.414,0,0,0,174.616,73q3.991,0.141,8.742.141,0.343-.918.826-2.117h-0.619q-5.989.142-8.467,0.07-2.618,0-3.649-1.411h0Zm11.5,0.423V61.431H178.54l0.275-.988h4.818V58.679h-2.684q0.549-.776.964-1.411l-2.272-.423a3.164,3.164,0,0,1-.275.565l-0.62,1.27h-1.79q-0.412-.776-1.032-1.905l-2.065.565a3.186,3.186,0,0,0,.206.353,5.428,5.428,0,0,0,.688.988h-2.34v1.764h4.13l-0.137.988h-3.374v8.679h9.913ZM194.5,64.324l0.619,1.059a25.308,25.308,0,0,1-2.547,3.74l1.653,1.27q1.032-1.482,2.065-3.034,0.825,1.482,1.652,3.034l1.858-1.2q-1.239-1.905-2.34-3.81,1.17-2.117,2.2-4.375L197.8,60.3a28.407,28.407,0,0,1-1.514,3.175,29.629,29.629,0,0,0-1.859-2.964l-1.652.917q1.1,1.836,1.721,2.893h0Zm-9.981,4.657a4.7,4.7,0,0,0,.137.776,28.42,28.42,0,0,0,1.515-3.175v6.774h2.065V66.3a2.556,2.556,0,0,0,.482.353q0.273,0.283.413,0.423l1.239-1.623v7.339h9.981V70.957H192.5V60.02h7.709V57.974h-9.843v7.268q-1.1-.776-2.134-1.482V62.137h1.652V59.949h-1.652V56.986h-2.065v2.964h-1.928v2.188h1.79a17.613,17.613,0,0,1-1.927,4.516q0.343,1.905.413,2.329h0Zm23.6,1.694V69.052h5.369v1.623h-5.369Zm-2.2-6.28v1.764h9.844V64.395h-9.844Zm0-2.682v1.835h9.844V61.713h-9.844Zm6.4-2.823a13.769,13.769,0,0,0-.9-1.976l-2.478.423a8.457,8.457,0,0,1,.551,1.2,2.623,2.623,0,0,0,.137.353h-4.405V60.8h11.5V58.891h-4.406ZM200.4,64.959q0.068,0.423.207,1.27,0.274,1.341.344,1.905,0.55-.987,1.17-2.046v7.268h2.065v-12q0.62-1.763,1.239-3.74l-2.134-.635a37.311,37.311,0,0,1-2.891,7.974h0Zm7.71,7.55h5.369v0.847h2.272v-6.28h-9.844v6.28h2.2V72.51Zm12.377-11.573V60.02h8.88v0.917h-8.88Zm8.88,1.482v0.988h-8.88V62.419h8.88Zm-8.88,2.4h8.88v0.988h-8.88V64.818Zm10.6,7.268,2-.917q-0.62-1.2-2-3.458l-1.859.917a23.921,23.921,0,0,1,1.859,3.458h0ZM216.7,71.663l1.927,0.917a4.628,4.628,0,0,1,.344-0.847q0.758-1.693,1.24-2.964l-2-.706a22.785,22.785,0,0,1-1.514,3.6h0Zm10.67-1.058a1.292,1.292,0,0,1-1.446.706H224a0.841,0.841,0,0,1-1.033-.847V68.276H220.7v2.752q0,2.046,2.479,2.046h3.648a2.453,2.453,0,0,0,2.409-1.2q0.274-.564.688-1.552-0.758-.423-2.2-1.2a7.943,7.943,0,0,1-.344,1.482h0Zm-2.685-3.1-1.033.706a4.063,4.063,0,0,0,.482.565q0.963,1.341,1.308,1.835l1.79-1.27q-0.689-.847-1.446-1.835H231.5V58.256h-5.714c0.046-.094.114-0.235,0.207-0.423a3.722,3.722,0,0,0,.275-0.706l-2.753-.282a4.589,4.589,0,0,0-.138.565q-0.138.566-.206,0.847h-4.819V67.5h6.333Zm10.381-5.434V65.03c-0.231.047-.551,0.118-0.964,0.212l-1.033.212,0.207,2.4q0.894-.281,1.79-0.494v3.034a0.7,0.7,0,0,1-.551.847h-0.482a7.3,7.3,0,0,0-.826-0.071,15.029,15.029,0,0,1,.551,2.117,7.055,7.055,0,0,0,2-.141A1.648,1.648,0,0,0,237.2,71.24V66.865a9.984,9.984,0,0,1,1.377-.353q0-.776.069-2.187a2.853,2.853,0,0,0-.688.141q-0.483.071-.758,0.141v-2.54h1.377V59.879H237.2V56.986h-2.133v2.893H233.21v2.188h1.859Zm9.912-2.752V56.986h-2.34v2.329h-3.649v2.046h3.649V63.2h-3.649v2.117h6.953a8.867,8.867,0,0,1-2.2,2.964,12.76,12.76,0,0,1-2.478-2.893l-1.859,1.129a27.777,27.777,0,0,0,2.478,3.1,20.121,20.121,0,0,1-3.992,1.764,11.871,11.871,0,0,1,1.308,2.046,39.049,39.049,0,0,0,4.612-2.258,20.759,20.759,0,0,0,4.2,2.117q0.207-.283.688-1.129a7.283,7.283,0,0,1,.62-0.988,17.544,17.544,0,0,1-3.649-1.552,13.875,13.875,0,0,0,2.892-4.375V63.2h-3.58V61.361h3.993V59.314h-3.993Zm17.127,1.411h-3.442v-3.74h-2.341v3.74h-6.333v2.258h5.576a20.891,20.891,0,0,1-6.264,6.633q0.274,0.283.9,0.988,0.55,0.635.826,0.917a19.546,19.546,0,0,0,5.3-5.927v7.692h2.341v-7.55a18.02,18.02,0,0,0,5.094,5.786q0.894-1.058,1.927-2.117a16.215,16.215,0,0,1-6.47-6.421h5.851V60.726h-2.823l1.515-1.552q-1.446-1.27-2.754-2.258l-1.376,1.411q1.168,1.058,2.478,2.4h0Zm15.75,6.28v1.27H270.9v-1.27h6.953ZM270.9,65.242v-1.27h6.953v1.27H270.9Zm6.953,4.8v0.282a0.8,0.8,0,0,1-.895.917q-1.171,0-2.616-.071a10.121,10.121,0,0,1,.62,2.188h1.514q0.963-.071,1.446-0.071,2.338,0,2.34-2.187V62h-8.674a6.193,6.193,0,0,0,.689-1.2h9.5V58.679h-8.467a5.46,5.46,0,0,0,.207-0.564q0.274-.564.413-0.847l-2.616-.423a10.817,10.817,0,0,1-.688,1.835h-4.819V60.8H269.6a18.439,18.439,0,0,1-3.923,4.8,13.033,13.033,0,0,1,.275,1.411q0.207,0.777.275,1.2,1.239-1.059,2.341-2.117v7.2h2.34V70.04h6.953Zm15.681-3.669h3.1q-1.032.918-1.376,1.2-0.552.423-.826,0.635a16.59,16.59,0,0,1-.9-1.835h0Zm-0.482,3.74a2.067,2.067,0,0,1-.482.141l-1.859.423v-4.3h0.758a14.6,14.6,0,0,0,1.583,3.74h0Zm-2.341-9.032V59.667h4.406v1.411h-4.406Zm0,1.835h4.406v1.411h-4.406V62.913Zm-3.3-1.411q0.482-1.551.689-2.258V57.621h-5.507V73.427h2V59.6h1.377q-0.139.494-.413,1.482-0.483,1.976-.826,2.964a5.241,5.241,0,0,1,1.445,3.387q-0.069.989-1.514,0.706,0.274,1.2.482,2.611a3.612,3.612,0,0,0,2.547-.776,2.628,2.628,0,0,0,.619-1.905,6.385,6.385,0,0,0-1.583-4.3q0.207-.776.688-2.258h0Zm8.261,8.186a28.385,28.385,0,0,1,2.547-1.552l-1.377-1.764h0.413V57.691h-8.6V70.04a1.959,1.959,0,0,1-.55,1.623L289,73.427a41.876,41.876,0,0,1,4.268-1.27q0-.635.069-1.694a9.525,9.525,0,0,0,3.717,2.752,3.219,3.219,0,0,1,.207-0.353,9.035,9.035,0,0,1,1.033-1.835,6.9,6.9,0,0,1-2.616-1.341h0Zm2.671-5.927q0.549,0.635,1.239,1.482a6,6,0,0,0,.413.494,23.215,23.215,0,0,0,5.163-7.339l-2.272-.988a18.506,18.506,0,0,1-4.543,6.351h0Zm14.318,1.835a24.5,24.5,0,0,1,1.927-2.046,18.56,18.56,0,0,1-4.818-6.351l-2.134,1.058a25.1,25.1,0,0,0,5.025,7.339h0Zm-3.3,4.3q-2.961.071-6.2,0.212a52.325,52.325,0,0,0,4.543-6.492L305.3,62.56a41.979,41.979,0,0,1-4.474,6.986,8.257,8.257,0,0,1-1.239,1.059l1.032,2.117a12.356,12.356,0,0,1,1.584-.282h0.137q1.17-.071,8.467-0.423,0.482,0.776.688,1.058a1.667,1.667,0,0,0,.207.353l2.134-1.552q-2.066-2.964-4.612-6.139l-1.928,1.27q1.034,1.482,2.066,2.893h0Zm13.409-1.411H318.5V66.582h4.268v1.905Zm-6.608,3.034h2.34V70.6h6.54V64.466h-8.88v7.056Zm-0.62-13.9v2.117h11.978v9.808a1.327,1.327,0,0,1-1.446,1.552q-1.032,0-2.34-.07a5.033,5.033,0,0,1,.619,2.188q1.653,0,2.616-.071a2.7,2.7,0,0,0,2.891-3.034V57.621H315.539Zm11.014,5.5V61.078H314.782v2.046h11.771ZM141.674,81.708q-0.18.461-.4,1.105a1.442,1.442,0,0,1-.09-0.322,4.976,4.976,0,0,1-.269-0.783L138.4,75.26h-1.836v9.534h1.388V79.129q0-1.012-.089-2.073h0.045q0.178,0.737.492,1.658l2.33,6.08h1.075l2.285-6.08a8.969,8.969,0,0,0,.538-1.658h0.045q-0.135,1.382-.135,2.073v5.665h1.434V75.26h-1.837ZM154.21,75.26h-7.751v1.382H149.6v8.152h1.523V76.641h3.092V75.26Zm0.573,9.534h1.524V75.26h-1.524v9.534Zm7.635,0h1.523V75.26h-1.523v9.534Zm5.994-7.185a2.109,2.109,0,0,0-1.926,1.013V77.747h-1.434v7.047h1.434V80.51a1.67,1.67,0,0,1,1.747-1.612q1.21,0,1.21,1.566v4.329h1.478V80.326q0.09-2.809-2.509-2.717h0Zm5.636-1.2a3.076,3.076,0,0,1,.986.184l0.358-1.2a4.588,4.588,0,0,0-1.657-.276q-1.748,0-1.792,1.98v0.645h-1.031v1.29h1.031v5.757h1.478V79.036h1.344l0.045-1.29h-1.389V77.056a0.522,0.522,0,0,1,.627-0.645h0Zm2.052,4.974q0.045-2.441,1.837-2.487,1.7,0.046,1.748,2.441-0.045,2.4-1.748,2.441-1.793-.092-1.837-2.395h0Zm-1.523.046q0.178,3.363,3.315,3.546,3.317-.093,3.361-3.685-0.135-3.546-3.226-3.685-3.36.093-3.45,3.823h0Zm9.937-3.823a1.513,1.513,0,0,0-1.344,1.151V77.747h-1.478v7.047h1.478V81.017q-0.045-1.98,1.165-1.934a1.356,1.356,0,0,1,.941.322l0.627-1.336a1.961,1.961,0,0,0-1.389-.461h0Zm8.369,0a2.089,2.089,0,0,0-1.792,1.151,2.245,2.245,0,0,0-2.15-1.151,1.891,1.891,0,0,0-1.568.967V77.793h-1.479v7h1.479V80.464a1.494,1.494,0,0,1,1.433-1.52q1.12-.092,1.076,1.52v4.329h1.478V80.51a1.445,1.445,0,0,1,1.434-1.566q1.119-.092,1.075,1.52v4.329h1.479V80.326q0-2.763-2.465-2.717h0Zm5.592,6.034q-1.21,0-1.165-.737-0.09-.874,1.434-1.013a2.992,2.992,0,0,0,1.747-.553v0.645q-0.135,1.52-2.016,1.658h0ZM201.969,83V80.326q0.045-2.809-2.777-2.763-2.735-.092-3.226,2.119L197.4,80.1a1.4,1.4,0,0,1,1.748-1.2q1.478-.092,1.344,1.243a4.438,4.438,0,0,1-2.061.461q-2.6.276-2.643,2.349,0.088,1.934,2.464,1.98a2.832,2.832,0,0,0,2.419-1.013,1.152,1.152,0,0,0,.4.875h1.479a2.479,2.479,0,0,1-.583-1.8h0Zm2.993,0.783q-0.448.093-.4-0.6V78.99h1.165l0.045-1.244h-1.21l-0.045-2.487L203.08,76v1.75h-0.94V78.99h0.94v4.237a1.423,1.423,0,0,0,1.613,1.7,4.638,4.638,0,0,0,1.255-.276l-0.269-.967a2.844,2.844,0,0,1-.717.092h0Zm1.022,1.013h1.478V77.747h-1.478v7.047Zm0-7.83h1.478v-1.7h-1.478v1.7Zm3.351,4.421q0.043-2.441,1.837-2.487,1.7,0.046,1.747,2.441-0.045,2.4-1.747,2.441-1.792-.092-1.837-2.395h0Zm-1.523.046q0.178,3.363,3.315,3.546,3.315-.093,3.36-3.685-0.133-3.546-3.226-3.685-3.36.093-3.449,3.823h0Zm10.474-3.823a2.109,2.109,0,0,0-1.926,1.013V77.747h-1.434v7.047h1.434V80.51a1.671,1.671,0,0,1,1.747-1.612q1.21,0,1.21,1.566v4.329H220.8V80.326q0.09-2.809-2.509-2.717h0Zm12.841-2.349h-7.751v1.382h3.136v8.152h1.524V76.641h3.091V75.26Zm4.874,5.3h-3.36a1.713,1.713,0,0,1,1.7-1.566A1.569,1.569,0,0,1,236,80.556h0Zm-1.657,3.178a1.841,1.841,0,0,1-1.792-1.888h5.062V81.431q-0.09-3.731-3.27-3.823-3.226.185-3.36,3.777,0.133,3.454,3.405,3.593a2.872,2.872,0,0,0,3.181-2.119l-1.524-.415a1.521,1.521,0,0,1-1.7,1.29h0Zm6.577-6.126q-3.048.185-3.181,3.731,0.089,3.547,3.226,3.639a2.732,2.732,0,0,0,3.046-2.441l-1.478-.323a1.43,1.43,0,0,1-1.524,1.474q-1.7,0-1.7-2.349,0-2.394,1.7-2.395a1.426,1.426,0,0,1,1.389,1.2l1.479-.368a2.858,2.858,0,0,0-2.957-2.165h0Zm6.532,0a1.97,1.97,0,0,0-1.882.967V75.26h-1.478v9.534h1.478V80.51a1.629,1.629,0,0,1,1.658-1.612q1.254,0,1.254,1.566v4.329h1.479V80.326q0.044-2.763-2.509-2.717h0Zm6.667,0a2.109,2.109,0,0,0-1.927,1.013V77.747h-1.434v7.047h1.434V80.51A1.671,1.671,0,0,1,253.94,78.9q1.211,0,1.21,1.566v4.329h1.478V80.326q0.09-2.809-2.508-2.717h0Zm4.426,3.777q0.043-2.441,1.837-2.487,1.7,0.046,1.747,2.441-0.045,2.4-1.747,2.441-1.792-.092-1.837-2.395h0Zm-1.523.046q0.178,3.363,3.315,3.546,3.315-.093,3.36-3.685-0.134-3.546-3.225-3.685-3.361.093-3.45,3.823h0Zm7.114,3.362h1.479V75.26h-1.479v9.534Zm3.4-3.408q0.045-2.441,1.837-2.487,1.7,0.046,1.748,2.441-0.045,2.4-1.748,2.441-1.793-.092-1.837-2.395h0Zm-1.523.046q0.179,3.363,3.316,3.546,3.315-.093,3.36-3.685-0.135-3.546-3.226-3.685-3.36.093-3.45,3.823h0Zm9.893,2.026q-1.659-.092-1.7-2.211,0.045-2.256,1.837-2.3a1.553,1.553,0,0,1,1.568,1.612V81.57q0,1.889-1.7,1.888h0Zm1.7-4.79a2.068,2.068,0,0,0-1.837-1.013q-2.913.138-3.046,3.592,0.134,3.271,2.912,3.408a2.227,2.227,0,0,0,1.971-.783q0.135,1.934-1.926,1.842a3.453,3.453,0,0,1-1.837-.6l-0.762.875A3.429,3.429,0,0,0,275.723,87q3.495,0.092,3.361-3.224V77.793h-1.479v0.875h0Zm4.247,5.665-0.358.6a0.878,0.878,0,0,1-.9.737,2.478,2.478,0,0,1-.807-0.138l-0.313,1.059a4.239,4.239,0,0,0,1.3.322q1.613,0.23,2.285-2.026l2.957-7.139h-1.613q-1.121,2.994-1.568,4.283c-0.09.276-.164,0.538-0.224,0.783-0.03-.092-0.075-0.245-0.134-0.461a0.7,0.7,0,0,1-.09-0.276q-0.448-1.289-1.568-4.329h-1.613ZM295,75.076q-4.391.138-4.48,4.974,0.09,4.791,4.346,4.882a3.856,3.856,0,0,0,4.212-3.178l-1.658-.415a2.443,2.443,0,0,1-2.6,2.257q-2.644-.092-2.688-3.546,0.135-3.408,2.778-3.546a2.511,2.511,0,0,1,2.374,1.842l1.613-.461a4.032,4.032,0,0,0-3.9-2.809h0Zm5.637,6.31q0.043-2.441,1.836-2.487,1.7,0.046,1.748,2.441-0.045,2.4-1.748,2.441-1.791-.092-1.836-2.395h0Zm-1.524.046q0.178,3.363,3.316,3.546,3.315-.093,3.36-3.685-0.135-3.546-3.226-3.685-3.36.093-3.45,3.823h0Zm7.473,3.362h1.837V82.951h-1.837v1.842Zm3.038,0h0.941a2.121,2.121,0,0,1-.941,1.612l0.493,0.461a2.567,2.567,0,0,0,1.344-2.487V82.951h-1.837v1.842Zm2.858,0h6.228V83.458h-4.659v-8.2h-1.569v9.534Zm8.728-1.013q-0.448.093-.4-0.6V78.99h1.165l0.044-1.244H320.8l-0.045-2.487L319.325,76v1.75h-0.941V78.99h0.941v4.237a1.423,1.423,0,0,0,1.613,1.7,4.638,4.638,0,0,0,1.255-.276l-0.269-.967a2.85,2.85,0,0,1-.717.092h0Zm3.71,0q-1.7.046-1.658-2.395,0-2.487,1.658-2.441a1.588,1.588,0,0,1,1.612,1.842v0.921q0,2.073-1.612,2.073h0Zm1.612-5.251a2.224,2.224,0,0,0-1.747-.921q-3,0-3,3.777,0,3.547,2.823,3.593a2.169,2.169,0,0,0,1.926-.921V84.84h1.479V75.26h-1.479v3.27h0Zm2.635,6.264H331V82.951h-1.837v1.842ZM91.812,85H89.122V60.7H87.778L77.406,80.95,67.033,60.7H65.689V85H63V58h6.152L77.4,74.586,85.658,58h6.154V85Zm-3.458,0H85.664V72.772L79.325,85h-3.84L69.146,72.774V85H66.457V61.472l0.2-.007L77.406,82.271,88.149,61.465l0.2,0.007V85Zm29.963-24.3H93.348V58h24.969v2.7ZM105.448,85H102.76V64.171H93.348v-2.7h12.1V85Zm12.869-20.828h-9.411V85h-2.689V61.472h12.1v2.7ZM122.543,85h-2.689V58h2.689V85ZM126,85h-2.689V58H126V85Z" transform="translate(-63 -56.781)"/>
</svg>
