<svg 
 xmlns="http://www.w3.org/2000/svg"
 xmlns:xlink="http://www.w3.org/1999/xlink"
 width="36px" height="35px">
<path fill-rule="evenodd"  fill="rgb(128, 128, 128)"
 d="M0.971,34.999 L0.971,30.224 C1.378,24.321 6.724,22.690 10.639,21.531 C9.301,19.947 8.494,17.906 8.494,15.674 L8.494,9.983 C8.494,4.955 12.582,0.879 17.627,0.879 C22.673,0.879 26.762,4.955 26.762,9.983 L26.762,15.674 C26.762,17.668 26.111,19.507 25.020,21.007 C29.123,22.311 34.359,24.970 35.082,30.224 L35.082,34.999 L0.971,34.999 ZM32.165,28.396 C31.106,25.660 25.952,23.333 21.179,21.928 C21.999,20.804 24.078,17.164 24.078,15.669 L24.078,11.406 C24.078,7.639 21.003,3.673 17.212,3.673 C13.420,3.673 11.262,7.639 11.262,11.406 L11.262,15.669 C11.262,17.341 13.758,20.742 14.765,21.928 C11.822,22.796 4.705,25.668 3.768,29.234 L3.775,31.974 L32.165,31.974 L32.165,28.396 Z"/>
</svg>