<svg 
 xmlns="http://www.w3.org/2000/svg"
 xmlns:xlink="http://www.w3.org/1999/xlink"
 width="18px" height="20px">
<path fill-rule="evenodd"  fill="rgb(102, 102, 102)"
 d="M15.650,19.999 L2.347,19.999 C0.996,19.999 0.034,19.269 0.034,18.372 L0.034,1.627 C0.034,0.730 0.996,-0.001 2.347,-0.001 L15.650,-0.001 C17.001,-0.001 17.963,0.730 17.963,1.627 L17.963,18.372 C17.963,19.269 17.001,19.999 15.650,19.999 ZM16.000,1.627 C16.000,1.501 15.840,1.395 15.650,1.395 L2.347,1.395 C2.157,1.395 1.997,1.501 1.997,1.627 L1.997,18.372 C1.997,18.498 2.157,18.604 2.347,18.604 L15.650,18.604 C15.840,18.604 16.000,18.498 16.000,18.372 L16.000,1.627 ZM13.550,11.627 L4.448,11.627 C3.867,11.627 4.534,11.315 4.534,10.930 L4.534,3.488 C4.534,3.102 3.867,2.790 4.448,2.790 L13.550,2.790 C14.130,2.790 13.463,3.102 13.463,3.488 L13.463,10.930 C13.463,11.315 14.130,11.627 13.550,11.627 ZM12.500,4.185 L5.498,4.185 L5.498,10.232 L12.500,10.232 L12.500,4.185 ZM8.998,14.418 C10.158,14.418 11.099,15.043 11.099,15.813 C11.099,16.584 10.158,17.209 8.998,17.209 C7.838,17.209 6.897,16.584 6.897,15.813 C6.897,15.043 7.838,14.418 8.998,14.418 Z"/>
</svg>