<svg 
 xmlns="http://www.w3.org/2000/svg"
 xmlns:xlink="http://www.w3.org/1999/xlink"
 width="28px" height="17px">
<path fill-rule="evenodd"  opacity="0.8" fill="rgb(255, 255, 255)"
 d="M26.920,15.582 L21.774,12.736 L21.774,14.165 C21.774,15.730 20.381,16.999 18.663,16.999 L3.108,16.999 C1.390,16.999 -0.004,15.730 -0.004,14.165 L-0.004,2.832 C-0.004,1.268 1.390,-0.001 3.108,-0.001 L18.663,-0.001 C20.381,-0.001 21.774,1.268 21.774,2.832 L21.774,4.262 L26.920,1.416 C27.514,1.416 27.997,1.944 27.997,2.596 L27.997,14.402 C27.997,15.054 27.514,15.582 26.920,15.582 ZM20.218,4.249 C20.218,2.684 18.826,1.416 17.109,1.416 L4.663,1.416 C2.945,1.416 1.552,2.684 1.552,4.249 L1.552,12.749 C1.552,14.313 2.945,15.582 4.663,15.582 L17.109,15.582 C18.826,15.582 20.218,14.313 20.218,12.749 L20.218,4.249 ZM26.920,4.012 L21.774,6.508 L21.774,10.490 L26.920,12.985 C26.920,12.321 26.920,4.732 26.920,4.012 Z"/>
</svg>