<?xml version="1.0" standalone="no"?><!DOCTYPE svg PUBLIC "-//W3C//DTD SVG 1.1//EN" "http://www.w3.org/Graphics/SVG/1.1/DTD/svg11.dtd"><svg t="1536527649972" class="icon" style="" viewBox="0 0 1024 1024" version="1.1" xmlns="http://www.w3.org/2000/svg" p-id="4654" xmlns:xlink="http://www.w3.org/1999/xlink" width="128" height="128"><defs><style type="text/css"></style></defs><path d="M512.3 327.5c-87.2 0-158 70.7-158 158s70.7 158 158 158c87.2 0 158-70.7 158-158s-70.8-158-158-158z m0 263.3c-58.2 0-105.3-47.2-105.3-105.3 0-58.2 47.2-105.3 105.3-105.3 58.2 0 105.3 47.1 105.3 105.3 0 58.1-47.2 105.3-105.3 105.3z" p-id="4655" fill="#666666"></path><path d="M880.9 493.8c0-173.3-126.8-317.9-295.2-350.9 0.2-2.3 0.4-4.7 0.4-7.1 0-39.5-33-71.6-73.7-71.6s-73.7 32.1-73.7 71.6c0 2.4 0.1 4.8 0.4 7.1-168.4 33-295.2 177.6-295.2 350.9 0 155.4 101.9 287.6 244.4 337.1-25.8 29.2-81.7 92.4-96.9 107.9-19.9 20.4 64.7 20.5 219.7 20.5s239.6-0.1 219.7-20.5c-15.1-15.4-70.2-77.6-96.2-107.2C777.9 782.8 880.9 650 880.9 493.8z m-387.1-358c0-9.9 8.3-17.9 18.4-17.9 10.2 0 18.4 8 18.4 17.9v0.4c-6.1-0.3-12.2-0.4-18.4-0.4-6.2 0-12.3 0.2-18.4 0.4v-0.4z m128.3 761.1s1.5 8.8-115.5 8.8v-0.1c-108.1-0.5-107-8.7-107-8.7l46.8-50.3 5.1 0.4c18.8 3 38.2 4.7 57.9 4.8H512.3c21.5 0 42.5-1.8 63-5.2l46.8 50.3z m-109.8-98.8c-173 0-313.3-136.2-313.3-304.3 0-168.1 140.3-304.3 313.3-304.3s313.3 136.2 313.3 304.3c0 168.1-140.3 304.3-313.3 304.3z" p-id="4656" fill="#666666"></path></svg>