<svg 
 xmlns="http://www.w3.org/2000/svg"
 xmlns:xlink="http://www.w3.org/1999/xlink"
 width="30px" height="18px">
<path fill-rule="evenodd"  opacity="0.8" fill="rgb(255, 255, 255)"
 d="M28.844,16.499 L23.329,13.485 L23.329,14.999 C23.329,16.656 21.837,17.999 19.996,17.999 L3.331,17.999 C1.489,17.999 -0.004,16.656 -0.004,14.999 L-0.004,2.999 C-0.004,1.342 1.489,-0.001 3.331,-0.001 L19.996,-0.001 C21.837,-0.001 23.329,1.342 23.329,2.999 L23.329,4.513 L28.844,1.499 C29.480,1.499 29.997,2.059 29.997,2.749 L29.997,15.249 C29.997,15.939 29.480,16.499 28.844,16.499 ZM21.663,4.499 C21.663,2.842 20.171,1.499 18.331,1.499 L4.997,1.499 C3.155,1.499 1.663,2.842 1.663,4.499 L1.663,13.499 C1.663,15.156 3.155,16.499 4.997,16.499 L18.331,16.499 C20.171,16.499 21.663,15.156 21.663,13.499 L21.663,4.499 ZM28.844,4.249 L23.329,6.891 L23.329,11.107 L28.844,13.749 C28.844,13.046 28.844,5.011 28.844,4.249 ZM9.980,14.028 C9.616,14.275 7.825,14.146 7.825,13.427 L7.825,4.561 C7.825,3.836 9.583,3.736 9.980,3.959 L16.671,8.462 C17.046,8.721 17.057,9.244 16.671,9.525 L9.980,14.028 ZM9.833,6.142 C9.833,6.802 9.833,11.672 9.833,11.845 L14.879,8.993 L9.833,6.142 Z"/>
</svg>