<svg 
 xmlns="http://www.w3.org/2000/svg"
 xmlns:xlink="http://www.w3.org/1999/xlink"
 width="28px" height="28px">
<path fill-rule="evenodd"  fill="rgb(255, 255, 255)"
 d="M13.998,24.500 C13.104,24.500 12.231,24.419 11.382,24.278 L5.249,28.000 L5.249,21.804 C2.051,19.559 -0.000,16.116 -0.000,12.250 C-0.000,5.484 6.266,-0.000 13.998,-0.000 C21.731,-0.000 27.998,5.484 27.998,12.250 C27.998,19.015 21.731,24.500 13.998,24.500 ZM13.998,1.750 C7.233,1.750 1.749,6.451 1.749,12.250 C1.749,15.808 3.818,18.947 6.977,20.846 L6.922,24.904 L11.041,22.429 C11.990,22.631 12.977,22.750 13.998,22.750 C20.764,22.750 26.249,18.049 26.249,12.250 C26.249,6.451 20.764,1.750 13.998,1.750 ZM19.378,17.199 L14.619,17.199 L14.619,18.799 L15.860,18.799 L15.860,19.999 L14.619,19.999 L13.378,19.999 L12.136,19.999 L12.136,18.799 L13.378,18.799 L13.378,17.199 L8.619,17.199 C8.276,17.199 7.998,16.931 7.998,16.600 L7.998,14.799 L9.240,14.799 L9.240,15.999 L18.757,15.999 L18.757,14.799 L19.998,14.799 L19.998,16.600 C19.998,16.931 19.721,17.199 19.378,17.199 ZM13.998,15.200 C11.603,15.200 9.653,13.136 9.653,10.599 L9.653,8.599 C9.653,6.063 11.603,3.999 13.998,3.999 C16.395,3.999 18.343,6.063 18.343,8.599 L18.343,10.599 C18.343,13.136 16.395,15.200 13.998,15.200 ZM17.102,8.599 C17.102,6.724 15.710,5.199 13.998,5.199 C12.287,5.199 10.895,6.724 10.895,8.599 L10.895,10.599 C10.895,12.474 12.287,13.999 13.998,13.999 C15.710,13.999 17.102,12.474 17.102,10.599 L17.102,8.599 Z"/>
</svg>