<?xml version="1.0" standalone="no"?><!DOCTYPE svg PUBLIC "-//W3C//DTD SVG 1.1//EN" "http://www.w3.org/Graphics/SVG/1.1/DTD/svg11.dtd"><svg t="1536525661042" class="icon" style="" viewBox="0 0 1024 1024" version="1.1" xmlns="http://www.w3.org/2000/svg" p-id="1968" xmlns:xlink="http://www.w3.org/1999/xlink" width="128" height="128"><defs><style type="text/css"></style></defs><path d="M554.376075 850.102995l0.208185 87.874926 170.711774-0.14573v85.355887l-209.038649 0.187367c-1.39484 0.124911-2.727225 0.41637-4.163702 0.41637s-2.706406-0.291459-4.163702-0.41637l-208.997011 0.187366v-85.230975l170.33704-0.14573-0.208185-88.041474A383.643483 383.643483 0 0 1 128.200378 469.061825h84.772969a298.37087 298.37087 0 0 0 294.769268 297.704678c1.290748-0.124911 2.539858-0.395552 3.872243-0.395551s2.498221 0.270641 3.76815 0.374733a298.350052 298.350052 0 0 0 294.60272-297.704678h85.751438a383.664302 383.664302 0 0 1-341.361091 381.061988z m-42.240755-168.047005A213.160713 213.160713 0 0 1 298.93297 468.936914h0.458007l-0.374733-255.65129a213.160713 213.160713 0 0 1 426.300608-1.936121c0 0.374733 0.124911 0.728648 0.124911 1.124199l0.374733 256.463212a42.782036 42.782036 0 0 1-0.791103 7.890215 213.035802 213.035802 0 0 1-212.890073 205.228861z m128.32529-213.223168l-0.374734-255.65129h-0.333096a127.721552 127.721552 0 0 0-255.422286 0h-0.166548l0.374733 255.65129v1.061744a127.659097 127.659097 0 0 0 255.318194-0.957652h0.624555a0.895196 0.895196 0 0 0-0.124911-0.104092z m-129.366215-42.532214h2.081851H510.990302z" fill="#666666" p-id="1969"></path></svg>