<svg xmlns="http://www.w3.org/2000/svg" width="28" height="28" viewBox="0 0 28 28">
  <defs>
    <style>
      .cls-1 {
        fill: #fff;
        fill-rule: evenodd;
      }
    </style>
  </defs>
  <path id="语音会议" class="cls-1" d="M5979,793.5a15.95,15.95,0,0,1-2.62-.222L5970.25,797v-6.2a11.721,11.721,0,0,1-5.25-9.554c0-6.766,6.27-12.25,14-12.25s14,5.484,14,12.25S5986.73,793.5,5979,793.5Zm0-22.75c-6.77,0-12.25,4.7-12.25,10.5a10.14,10.14,0,0,0,5.23,8.6l-0.06,4.058,4.12-2.475a14.218,14.218,0,0,0,2.96.321c6.76,0,12.25-4.7,12.25-10.5S5985.76,770.75,5979,770.75Zm5.38,15.449h-4.76v1.6h1.24V789h-3.72v-1.2h1.24v-1.6h-4.76a0.611,0.611,0,0,1-.62-0.6v-1.8h1.24V785h9.52v-1.2H5985v1.8A0.611,0.611,0,0,1,5984.38,786.2Zm-5.38-2a4.485,4.485,0,0,1-4.35-4.6v-2a4.352,4.352,0,1,1,8.69,0v2A4.483,4.483,0,0,1,5979,784.2Zm3.1-6.6a3.118,3.118,0,1,0-6.21,0v2a3.118,3.118,0,1,0,6.21,0v-2Z" transform="translate(-5965 -769)"/>
</svg>
