<?xml version="1.0" standalone="no"?><!DOCTYPE svg PUBLIC "-//W3C//DTD SVG 1.1//EN" "http://www.w3.org/Graphics/SVG/1.1/DTD/svg11.dtd"><svg t="1536051228472" class="icon" style="" viewBox="0 0 1024 1024" version="1.1" xmlns="http://www.w3.org/2000/svg" p-id="8183" xmlns:xlink="http://www.w3.org/1999/xlink" width="48" height="48"><defs><style type="text/css"></style></defs><path d="M511.7 64.2c-247.5 0-448.2 200.7-448.2 448.2s200.7 448.2 448.2 448.2C759.3 960.7 960 760 960 512.4c0-247.5-200.7-448.2-448.3-448.2z m0 821.8c-206.3 0-373.5-167.2-373.5-373.5S305.4 139 511.7 139s373.5 167.2 373.5 373.5C885.3 718.7 718 886 511.7 886z m0-224.2c-20.6 0-37.3 16.7-37.3 37.4 0 20.6 16.7 37.4 37.3 37.4 20.6 0 37.4-16.7 37.4-37.4 0-20.6-16.7-37.4-37.4-37.4z m0-373.5c-20.6 0-62.3 16.7-62.3 37.4l24.9 224.1c0 20.6 16.7 37.3 37.4 37.3s37.4-16.7 37.4-37.3L574 325.7c0-20.6-41.6-37.4-62.3-37.4z" fill="#d81e06" p-id="8184"></path></svg>