<svg 
 xmlns="http://www.w3.org/2000/svg"
 xmlns:xlink="http://www.w3.org/1999/xlink"
 width="24px" height="25px">
<path fill-rule="evenodd"  fill="rgb(255, 255, 255)"
 d="M18.578,19.887 C20.908,18.563 22.449,16.276 22.449,13.671 C22.449,12.024 21.826,10.507 20.784,9.276 C20.854,8.795 20.902,8.309 20.902,7.812 C20.902,7.585 20.876,7.363 20.862,7.139 C22.791,8.757 23.998,11.039 23.998,13.574 C23.998,16.417 22.481,18.942 20.128,20.568 L20.128,24.999 L15.788,22.303 C15.185,22.402 14.568,22.461 13.933,22.461 C10.952,22.461 9.056,21.309 7.214,19.491 C7.516,19.508 7.819,19.531 8.128,19.531 C8.559,19.531 8.986,19.509 9.409,19.475 C10.862,20.485 11.928,21.093 13.933,21.093 C14.625,21.093 15.293,21.013 15.937,20.878 L18.578,22.656 L18.578,19.887 ZM10.062,17.968 C9.428,17.968 8.060,17.861 7.459,17.762 L3.094,20.312 L3.094,15.881 C1.072,14.143 -0.002,11.729 -0.002,8.886 C-0.002,3.978 4.496,-0.001 10.062,-0.001 C14.690,-0.001 19.354,3.978 19.354,8.886 C19.354,13.794 15.621,17.968 10.062,17.968 ZM7.285,16.191 C7.928,16.326 9.371,16.406 10.062,16.406 C14.766,16.406 17.804,13.083 17.804,8.984 C17.804,4.885 13.912,1.562 10.062,1.562 C5.226,1.562 1.547,4.885 1.547,8.984 C1.547,11.588 2.754,13.653 4.643,15.200 L4.643,17.968 L7.285,16.191 ZM14.320,10.156 C13.679,10.156 13.159,9.631 13.159,8.984 C13.159,8.337 13.679,7.812 14.320,7.812 C14.962,7.812 15.482,8.337 15.482,8.984 C15.482,9.631 14.962,10.156 14.320,10.156 ZM9.676,10.156 C9.034,10.156 8.514,9.631 8.514,8.984 C8.514,8.337 9.034,7.812 9.676,7.812 C10.317,7.812 10.837,8.337 10.837,8.984 C10.837,9.631 10.317,10.156 9.676,10.156 ZM5.030,10.156 C4.389,10.156 3.869,9.631 3.869,8.984 C3.869,8.337 4.389,7.812 5.030,7.812 C5.672,7.812 6.191,8.337 6.191,8.984 C6.191,9.631 5.672,10.156 5.030,10.156 Z"/>
</svg>