<?xml version="1.0" standalone="no"?><!DOCTYPE svg PUBLIC "-//W3C//DTD SVG 1.1//EN" "http://www.w3.org/Graphics/SVG/1.1/DTD/svg11.dtd"><svg t="1536247639682" class="icon" style="" viewBox="0 0 1024 1024" version="1.1" xmlns="http://www.w3.org/2000/svg" p-id="2137" xmlns:xlink="http://www.w3.org/1999/xlink" width="32" height="32"><defs><style type="text/css"></style></defs><path d="M832 194.56h-358.4c0-56.32-46.08-102.4-102.4-102.4h-153.6c-56.32 0-102.4 46.08-102.4 102.4v614.4c0 56.32 46.08 102.4 102.4 102.4h614.4c56.32 0 102.4-46.08 102.4-102.4v-512c0-56.32-46.08-102.4-102.4-102.4z m51.2 614.4c0 28.16-23.04 51.2-51.2 51.2h-614.4c-28.16 0-51.2-23.04-51.2-51.2v-409.6h716.8v409.6z m0-460.8h-716.8v-153.6c0-28.16 23.04-51.2 51.2-51.2h153.6c28.16 0 51.2 23.04 51.2 51.2v51.2h409.6c28.16 0 51.2 23.04 51.2 51.2v51.2z" p-id="2138" fill="#545454"></path></svg>