<?xml version="1.0" standalone="no"?><!DOCTYPE svg PUBLIC "-//W3C//DTD SVG 1.1//EN" "http://www.w3.org/Graphics/SVG/1.1/DTD/svg11.dtd"><svg t="1536248232342" class="icon" style="" viewBox="0 0 1024 1024" version="1.1" xmlns="http://www.w3.org/2000/svg" p-id="880" xmlns:xlink="http://www.w3.org/1999/xlink" width="32" height="32"><defs><style type="text/css"></style></defs><path d="M179.796 369.171c-10.762 0-19.489 8.725-19.489 19.487 0 10.766 8.727 19.489 19.489 19.489 10.764 0 19.489-8.723 19.489-19.489 0-10.762-8.726-19.487-19.489-19.487z m769.18-57.106a19.409 19.409 0 0 0-19.888 0.743L705.996 460.173V349.68c0-43.053-34.904-77.953-77.955-77.953H140.818c-43.053 0-77.953 34.901-77.953 77.953v389.776c0 43.055 34.901 77.955 77.953 77.955H628.04c43.051 0 77.955-34.901 77.955-77.955v-93.93l222.94 149.59a19.454 19.454 0 0 0 19.964 0.877 19.47 19.47 0 0 0 10.239-17.15V329.174a19.473 19.473 0 0 0-10.162-17.109z m-281.96 180.688a19.547 19.547 0 0 0-0.4 3.903v112.063c0 1.321 0.14 2.624 0.4 3.894v126.845c0 21.527-17.452 38.98-38.976 38.98H140.818c-21.525 0-38.978-17.452-38.978-38.98V349.68c0-21.525 17.452-38.978 38.978-38.978H628.04c21.523 0 38.976 17.452 38.976 38.978v143.073z m253.146 249.929L705.996 598.48v-91.471l214.166-142.055v377.728z" fill="#545454" p-id="881"></path></svg>