<?xml version="1.0" standalone="no"?><!DOCTYPE svg PUBLIC "-//W3C//DTD SVG 1.1//EN" "http://www.w3.org/Graphics/SVG/1.1/DTD/svg11.dtd"><svg t="1536248251430" class="icon" style="" viewBox="0 0 1024 1024" version="1.1" xmlns="http://www.w3.org/2000/svg" p-id="1003" xmlns:xlink="http://www.w3.org/1999/xlink" width="32" height="32"><defs><style type="text/css"></style></defs><path d="M512 667.136c-82.944 0-150.016-67.072-150.016-150.016V260.096c0-82.944 67.072-150.016 150.016-150.016s150.016 67.072 150.016 150.016V517.12c0 82.944-67.072 150.016-150.016 150.016z m0-514.048c-58.88 0-107.008 48.128-107.008 107.008V517.12c0 58.88 48.128 107.008 107.008 107.008s107.008-48.128 107.008-107.008V260.096c0-58.88-48.128-107.008-107.008-107.008z m278.528 364.032c0-11.776-9.728-21.504-21.504-21.504s-21.504 9.728-21.504 21.504c0 130.048-105.472 235.52-235.52 235.52s-235.52-105.472-235.52-235.52c0-11.776-9.728-21.504-21.504-21.504-11.776 0-21.504 9.728-21.504 21.504 0 146.432 113.664 266.752 257.024 277.504v86.528H426.496c-11.776 0-21.504 9.728-21.504 21.504s9.728 21.504 21.504 21.504h171.52c11.776 0 21.504-9.728 21.504-21.504s-9.728-21.504-21.504-21.504h-64.512v-86.528c143.36-10.752 257.024-131.072 257.024-277.504z" fill="#545454" p-id="1004"></path></svg>